<svg width="205" height="205" viewBox="0 0 205 205" fill="none" xmlns="http://www.w3.org/2000/svg">
<g clip-path="url(#clip0_466_20)">
<rect width="205" height="205" rx="102.5" fill="white"/>
<circle cx="103" cy="102" r="103" stroke="white" stroke-width="10"/>
<path d="M207.5 101C207.5 158.157 160.718 204.5 103 204.5C45.2817 204.5 -1.5 158.157 -1.5 101C-1.5 43.843 45.2817 -2.5 103 -2.5C160.718 -2.5 207.5 43.843 207.5 101Z" fill="white" stroke="#D8BFBB"/>
<path d="M56.7543 178C56.7543 178 49.6571 141.456 26 121.594C35.4629 107.294 45.7143 108.089 45.7143 108.089C55.1771 114.444 60.6971 127.156 66.2171 141.456C78.0457 117.622 81.9886 108.883 96.9714 92.2C130.091 51.6833 142.709 46.9167 157.691 35H164V39.7667L140.343 62.0111V125.437L132.457 141.456L120.629 162.906L101.703 178C100.126 168.467 96.1829 153.372 85.9314 141.456C75.68 165.289 72.5257 162.906 56.7543 178Z" fill="#261471"/>
<path d="M120 163V124.043V88.2671L100 117.683L96 92.2422C129.6 51.6957 141.6 46.9255 156.8 35H164V39.7702L140 62.0311V125.634L132 141.534L120 163Z" fill="#E11D18"/>
</g>
<defs>
<clipPath id="clip0_466_20">
<rect width="205" height="205" rx="102.5" fill="white"/>
</clipPath>
</defs>
</svg>
