<svg width="1592" height="708" viewBox="0 0 1592 708" fill="none" xmlns="http://www.w3.org/2000/svg">
<g clip-path="url(#clip0_540_306817)">
<path d="M1046.39 224.646C1042.64 257.853 1066.62 287.829 1099.99 291.603C1133.37 295.4 1163.46 271.556 1167.23 238.349C1170.98 205.166 1147 175.19 1113.63 171.393C1080.25 167.619 1050.16 191.463 1046.39 224.646Z" fill="url(#paint0_linear_540_306817)"/>
<path d="M1048.39 224.882C1044.76 256.981 1067.97 285.942 1100.23 289.598C1132.49 293.254 1161.57 270.212 1165.23 238.137C1168.86 206.038 1145.65 177.053 1113.39 173.397C1081.15 169.742 1052.05 192.784 1048.39 224.882Z" fill="url(#paint1_linear_540_306817)"/>
<path d="M1160.98 235.566C1160.97 235.566 1160.95 235.558 1160.94 235.542C1160.49 235.519 1160.16 235.141 1160.18 234.717C1160.32 232.476 1160.32 230.212 1160.16 227.995C1160.13 227.547 1160.46 227.17 1160.91 227.146C1161.34 227.123 1161.71 227.453 1161.76 227.877C1161.9 230.165 1161.9 232.5 1161.76 234.811C1161.74 235.236 1161.38 235.566 1160.98 235.566Z" fill="white"/>
<path d="M1157.7 213.633C1157.4 213.633 1157.09 213.42 1156.97 213.114C1149.9 194.152 1132.99 180.945 1112.8 178.657C1109.59 178.303 1106.31 178.209 1103.11 178.421C1102.68 178.445 1102.3 178.114 1102.28 177.69C1102.23 177.242 1102.56 176.864 1103.01 176.841C1106.31 176.629 1109.66 176.699 1112.99 177.077C1133.77 179.435 1151.17 193.02 1158.46 212.548C1158.6 212.972 1158.39 213.42 1157.99 213.562C1157.89 213.609 1157.8 213.633 1157.7 213.633Z" fill="white"/>
<g clip-path="url(#clip1_540_306817)">
<path d="M1097.88 247.707C1097.88 247.707 1095.46 249.179 1099.56 249.601C1104.51 250.231 1107.14 250.126 1112.61 249.075C1113.71 249.748 1114.87 250.312 1116.08 250.758C1103.77 256.019 1088.2 250.443 1097.88 247.707ZM1096.31 240.869C1096.31 240.869 1093.68 242.868 1097.78 243.291C1103.14 243.816 1107.35 243.921 1114.61 242.45C1115.32 243.166 1116.18 243.706 1117.14 244.027C1102.3 248.445 1085.68 244.446 1096.31 240.869ZM1125.34 252.859C1125.34 252.859 1127.13 254.332 1123.34 255.489C1116.29 257.596 1093.78 258.226 1087.47 255.489C1085.26 254.544 1089.47 253.176 1090.82 252.965C1092.19 252.65 1092.92 252.65 1092.92 252.65C1090.5 250.967 1076.83 256.121 1085.98 257.592C1111.12 261.695 1131.85 255.804 1125.32 252.859H1125.34ZM1099.02 233.715C1099.02 233.715 1087.55 236.451 1094.92 237.396C1098.07 237.818 1104.28 237.711 1110.06 237.292C1114.8 236.871 1119.53 236.032 1119.53 236.032C1119.53 236.032 1117.85 236.768 1116.69 237.505C1105.02 240.556 1082.61 239.188 1089.03 236.032C1094.5 233.402 1099.02 233.719 1099.02 233.719L1099.02 233.715ZM1119.53 245.181C1131.31 239.078 1125.84 233.191 1122.06 233.925C1121.11 234.136 1120.69 234.347 1120.69 234.347C1120.69 234.347 1121 233.717 1121.74 233.506C1129.21 230.876 1135.1 241.395 1119.32 245.496C1119.32 245.496 1119.42 245.391 1119.53 245.181H1119.53ZM1100.18 261.801C1111.54 262.537 1128.9 261.38 1129.32 256.013C1129.32 256.013 1128.48 258.119 1119.96 259.694C1110.28 261.482 1098.29 261.269 1091.24 260.116C1091.24 260.116 1092.71 261.378 1100.18 261.801Z" fill="white"/>
<path d="M1112.4 199.002C1112.4 199.002 1118.92 205.629 1106.19 215.622C1095.99 223.722 1103.88 228.35 1106.19 233.611C1100.2 228.246 1095.88 223.511 1098.83 219.095C1103.14 212.571 1115.03 209.434 1112.4 199.002ZM1109.05 229.193C1112.1 232.664 1108.21 235.82 1108.21 235.82C1108.21 235.82 1116 231.823 1112.42 226.877C1109.16 222.145 1106.63 219.829 1120.31 211.941C1120.31 211.941 1098.74 217.305 1109.05 229.193Z" fill="white"/>
</g>
</g>
<defs>
<linearGradient id="paint0_linear_540_306817" x1="1189.14" y1="152.049" x2="1158.85" y2="343.475" gradientUnits="userSpaceOnUse">
<stop stop-color="#FDF53F"/>
<stop offset="1" stop-color="#D93C65"/>
</linearGradient>
<linearGradient id="paint1_linear_540_306817" x1="1186.95" y1="143.589" x2="1143.6" y2="432.648" gradientUnits="userSpaceOnUse">
<stop stop-color="#FDF53F"/>
<stop offset="1" stop-color="#D93C65"/>
</linearGradient>
<clipPath id="clip0_540_306817">
<rect width="1592" height="708" fill="white"/>
</clipPath>
<clipPath id="clip1_540_306817">
<rect width="63" height="63" fill="white" transform="translate(1075 199)"/>
</clipPath>
</defs>
</svg>
