<svg width="1592" height="708" viewBox="0 0 1592 708" fill="none" xmlns="http://www.w3.org/2000/svg">
<g clip-path="url(#clip0_528_306250)">
<mask id="mask0_528_306250" style="mask-type:luminance" maskUnits="userSpaceOnUse" x="0" y="-1" width="1594" height="709">
<path d="M1593.46 708H0V-0.200195H1593.46V708Z" fill="white"/>
</mask>
<g mask="url(#mask0_528_306250)">
<path d="M185.9 525.999C185.9 525.999 184 555.899 185.9 568.299C185.9 568.299 188.4 575.499 199.4 578.599V602.399C199.4 602.399 218.3 606.699 224.6 599.799C231 592.799 258.2 519.699 258.2 519.699L225.4 523.299L185.9 525.999Z" fill="url(#paint0_linear_528_306250)"/>
<path d="M185.9 525.999C185.9 525.999 209.1 524.099 212.9 521.799L220.9 517.899L258.2 519.699C258.2 519.699 253.1 523.299 248.1 525.999C243.1 528.699 219.5 530.299 209.5 529.499C199.4 528.699 185.9 525.999 185.9 525.999Z" fill="url(#paint1_linear_528_306250)"/>
<path d="M185.9 568.299L197.8 570.499L204.2 568.299L208.2 543.299V568.199L210 577.599L221.6 581.999C221.6 581.999 229.6 578.399 231 573.099C232.4 567.799 242.5 527.599 242.5 527.599L258.2 519.699C258.2 519.699 237.6 579.299 228.5 593.199L221.6 603.699L200.5 607.499L197.8 599.699L199.4 578.599C199.4 578.599 186.6 575.099 185.9 568.299Z" fill="url(#paint2_linear_528_306250)"/>
<path d="M212.9 521.799C212.9 521.799 223.7 523.199 227.7 522.999C231.7 522.899 240.4 521.799 240.4 521.799C240.4 521.799 227 517.399 220.9 517.899C220.9 517.899 214.1 519.499 212.9 521.799Z" fill="#EFE5FF"/>
<path d="M272.3 486.8C272.3 486.8 267.2 511.9 267.8 517.9C268.4 523.9 279.8 537.2 279.8 537.2C279.8 537.2 291.9 563.3 295.8 576C299.6 588.7 312.7 605 312.7 605C312.7 605 391.1 617.1 412.6 617.1C434 617.1 444.8 607.1 444.8 607.1C444.8 607.1 475 554.6 477.7 552C480.3 549.4 495.4 544 495.4 544C495.4 544 519.9 499.7 521.8 488.1L453.7 490.9L272.3 486.8Z" fill="url(#paint3_linear_528_306250)"/>
<path d="M272.3 486.8L304.5 482.8L323.2 479.6C323.2 479.6 411.8 479.8 437.3 481.3C437.3 481.3 458.5 472.7 464.3 472.5C470.1 472.3 481.2 482.8 481.2 482.8L521.8 488.1C521.8 488.1 503.3 494.5 489 494.2L502.6 498.8C502.6 498.8 499.4 501.5 494 503.1C488.6 504.8 448 506 428.7 505.8C409.5 505.5 401 498.8 401 498.8L409.9 495.5L399.4 494.2C399.4 494.2 367.9 499.7 355.9 500.1C343.8 500.5 328.4 497.6 328.4 497.6L327.2 493.5C327.2 493.5 294.5 491.6 272.3 486.8Z" fill="url(#paint4_linear_528_306250)"/>
<path d="M319.6 493V510.5L301.8 513.5C301.8 513.5 301 513.8 299.1 518.9C297.1 523.9 288.1 536.3 288.1 536.3L279.8 537.2L286.4 552C286.4 552 295.9 552.1 299.7 554.4C303.5 556.8 311.9 563.8 311.9 563.8L316.9 577.6C316.9 577.6 322 552.1 322.3 548C322.6 544 327.5 526.7 326.7 523.8C326 520.9 327 509.5 327 509.5L328.4 497.6C328.4 497.6 354.2 501.1 356.8 502.1C359.5 503.1 360.7 513.8 360.7 513.8L369.5 534.1L359.6 563.6L363.5 588.7L364.7 607.5L378.6 622.5H389.7C389.7 622.5 398.8 573.5 399.4 570.5C400.1 567.5 397.1 560.5 397.1 560.5L401.5 529.7L401 498.8L409.9 495.5L399.4 494.2C399.4 494.2 366.7 499.1 361.3 499.6C355.9 500.1 328.3 495 328.3 495L344.8 491L319.6 493Z" fill="url(#paint5_linear_528_306250)"/>
<path d="M460.9 505.8L483 509.5L479.5 517.9L469.9 541L458.4 552L445.4 556.8L435.3 563.8H444.1L443.4 573.1L438.7 595.4L438.5 611.2L444.4 610.4C444.4 610.4 468 567.6 477.7 552C477.7 552 493.7 547 495.4 544C497.1 540.9 519.8 498.5 521.8 488.1L489 494.2L502.6 498.8C502.6 498.8 493 503.1 486.7 504.1C480.3 505.1 460.9 505.8 460.9 505.8Z" fill="url(#paint6_linear_528_306250)"/>
<path d="M437.3 481.3L430.1 484.8C430.1 484.8 435.3 486 438.4 486.8C441.4 487.7 458 486.3 460.9 485.5C463.9 484.6 474.8 481.3 474.8 481.3L475.3 477.9C475.3 477.9 467.2 470.6 464.7 471C462.3 471.4 441.6 479.2 437.3 481.3Z" fill="#EFE5FF"/>
<path d="M482.2 482.9L475.3 486.8L464.5 487.1H441.5C441.5 487.1 459.2 485.6 461.9 485C464.5 484.4 474.8 481.3 474.8 481.3L475.3 477.9L482.2 482.9Z" fill="url(#paint7_linear_528_306250)"/>
<path d="M319.6 510.5L327 527.9L328.3 495L344.8 491L319.6 493V510.5Z" fill="url(#paint8_linear_528_306250)"/>
<path d="M489 494.2L502.6 498.8L496.7 541.5C496.7 541.5 515.1 506.6 521.8 488.1L489 494.2Z" fill="url(#paint9_linear_528_306250)"/>
<path d="M361.3 499.6L378.6 516.5L389.4 527.9L391.6 537.7L401.2 531.6L401 498.8L409.9 495.5L399.4 494.2L361.3 499.6Z" fill="url(#paint10_linear_528_306250)"/>
<g opacity="0.5">
<path d="M323.7 559.399C324 559.699 324 560.099 323.8 560.399C323.5 560.699 323.1 560.699 322.8 560.399C322.5 560.099 322.4 559.599 322.7 559.399C322.9 559.099 323.4 559.099 323.7 559.399Z" fill="white"/>
<path d="M304.9 572.5C305.1 572.7 305.1 573.1 304.9 573.2C304.7 573.4 304.4 573.4 304.2 573.2C304 573 304 572.7 304.2 572.5C304.3 572.3 304.7 572.3 304.9 572.5Z" fill="white"/>
<path d="M297.9 570.7C298.1 570.9 298.1 571.1 297.9 571.2C297.8 571.4 297.6 571.4 297.4 571.2C297.3 571.1 297.2 570.8 297.4 570.7C297.5 570.6 297.7 570.6 297.9 570.7Z" fill="white"/>
<path d="M314.2 565.8C314.3 565.9 314.3 566 314.2 566.1C314.1 566.2 313.9 566.2 313.8 566.1C313.7 566 313.7 565.9 313.8 565.8C313.9 565.7 314.1 565.7 314.2 565.8Z" fill="white"/>
<path d="M303.7 573.4C303.8 573.5 303.8 573.7 303.7 573.8C303.6 573.8 303.4 573.8 303.3 573.7C303.2 573.6 303.2 573.5 303.3 573.4C303.4 573.3 303.6 573.3 303.7 573.4Z" fill="white"/>
<path d="M308 577.4C308.1 577.5 308.1 577.6 308.1 577.7C308 577.8 307.8 577.8 307.7 577.7C307.6 577.6 307.6 577.5 307.7 577.4C307.8 577.3 307.9 577.3 308 577.4Z" fill="white"/>
<path d="M308.9 574.3C309 574.4 309.1 574.5 309 574.6C308.9 574.7 308.7 574.7 308.6 574.6C308.5 574.5 308.5 574.4 308.6 574.3C308.7 574.2 308.9 574.2 308.9 574.3Z" fill="white"/>
<path d="M306.7 570.9C306.7 570.966 306.7 571.033 306.7 571.1C306.6 571.1 306.5 571.1 306.5 571.1C306.433 571.033 306.433 570.966 306.5 570.9C306.567 570.833 306.633 570.833 306.7 570.9Z" fill="white"/>
<path d="M278.2 498.499C278.3 498.599 278.3 498.799 278.2 498.899C278.1 498.999 277.9 498.999 277.8 498.899C277.7 498.799 277.7 498.599 277.8 498.499C277.9 498.399 278.1 498.399 278.2 498.499Z" fill="white"/>
<path d="M307 573.5C307 573.566 307 573.633 307 573.7C306.933 573.766 306.867 573.766 306.8 573.7C306.733 573.633 306.733 573.566 306.8 573.5C306.867 573.5 306.933 573.5 307 573.5Z" fill="white"/>
<path d="M304.6 570.099C304.7 570.199 304.7 570.299 304.7 570.399C304.6 570.499 304.4 570.499 304.3 570.399C304.2 570.299 304.2 570.099 304.3 570.099C304.4 569.999 304.5 569.999 304.6 570.099Z" fill="white"/>
<g style="mix-blend-mode:soft-light">
<path d="M422.2 614.799C422.6 615.199 422.6 615.799 422.3 616.199C421.9 616.499 421.3 616.499 421 616.099C420.6 615.699 420.5 615.099 420.9 614.799C421.2 614.399 421.8 614.499 422.2 614.799Z" fill="white"/>
</g>
<g style="mix-blend-mode:soft-light">
<path d="M407.9 620.2C408.2 620.5 408.3 620.9 408 621.2C407.8 621.4 407.4 621.4 407.1 621.1C406.8 620.8 406.8 620.4 407 620.2C407.3 619.9 407.7 619.9 407.9 620.2Z" fill="white"/>
</g>
<g style="mix-blend-mode:soft-light">
<path d="M398.8 617.799C399 617.999 399 618.299 398.8 618.499C398.7 618.699 398.4 618.699 398.2 618.499C398 618.299 397.9 617.999 398.1 617.799C398.3 617.599 398.6 617.599 398.8 617.799Z" fill="white"/>
</g>
<g style="mix-blend-mode:soft-light">
<path d="M420.1 611.4C420.3 611.5 420.3 611.7 420.2 611.8C420.1 611.9 419.9 611.9 419.7 611.8C419.6 611.7 419.6 611.5 419.7 611.3C419.8 611.2 420 611.2 420.1 611.4Z" fill="white"/>
</g>
<g style="mix-blend-mode:soft-light">
<path d="M406.4 621.4C406.5 621.5 406.5 621.7 406.4 621.8C406.3 621.9 406.1 621.9 405.9 621.8C405.8 621.7 405.8 621.5 405.9 621.4C406 621.3 406.2 621.3 406.4 621.4Z" fill="white"/>
</g>
<g style="mix-blend-mode:soft-light">
<path d="M412.1 626.599C412.2 626.699 412.2 626.899 412.1 626.999C412 627.099 411.8 627.099 411.7 626.999C411.6 626.899 411.5 626.699 411.7 626.599C411.8 626.399 412 626.499 412.1 626.599Z" fill="white"/>
</g>
<g style="mix-blend-mode:soft-light">
<path d="M413.3 622.499C413.4 622.599 413.4 622.799 413.3 622.999C413.2 623.099 413 623.099 412.9 622.899C412.8 622.799 412.7 622.599 412.9 622.499C413 622.399 413.2 622.399 413.3 622.499Z" fill="white"/>
</g>
<g style="mix-blend-mode:soft-light">
<path d="M410.3 618.099C410.4 618.099 410.4 618.199 410.3 618.299C410.2 618.299 410.1 618.299 410.1 618.299C410 618.199 410 618.099 410.1 618.099C410.1 617.999 410.2 617.999 410.3 618.099Z" fill="white"/>
</g>
<g style="mix-blend-mode:soft-light">
<path d="M410.7 621.499C410.7 621.599 410.8 621.699 410.7 621.699C410.6 621.799 410.5 621.799 410.5 621.699C410.4 621.699 410.4 621.599 410.5 621.499C410.5 621.399 410.6 621.399 410.7 621.499Z" fill="white"/>
</g>
<g style="mix-blend-mode:soft-light">
<path d="M407.6 616.999C407.8 617.099 407.8 617.299 407.7 617.399C407.5 617.499 407.3 617.499 407.2 617.399C407.1 617.299 407.1 617.099 407.2 616.999C407.3 616.799 407.5 616.899 407.6 616.999Z" fill="white"/>
</g>
<path d="M297.3 577.2C297.4 577.3 297.4 577.499 297.3 577.599C297.2 577.599 297.1 577.599 297 577.499C296.9 577.399 296.9 577.3 297 577.2C297 577.1 297.2 577.1 297.3 577.2Z" fill="white"/>
<path d="M256.8 478C257 478.2 257 478.5 256.8 478.8C256.6 479 256.3 478.9 256 478.7C255.8 478.5 255.8 478.1 256 477.9C256.2 477.7 256.5 477.7 256.8 478Z" fill="white"/>
<path d="M312.9 544.199C313.7 544.899 313.7 545.999 313.1 546.599C312.5 547.199 311.4 547.199 310.7 546.499C310 545.799 309.9 544.699 310.5 544.099C311.1 543.499 312.2 543.499 312.9 544.199Z" fill="white"/>
<path d="M428 624.999C428.4 625.399 428.5 625.999 428.1 626.299C427.8 626.699 427.2 626.599 426.8 626.299C426.4 625.899 426.4 625.299 426.7 624.899C427.1 624.599 427.7 624.599 428 624.999Z" fill="white"/>
<path d="M327.1 573.5C327.8 574.2 327.9 575.3 327.3 575.9C326.7 576.6 325.6 576.5 324.9 575.8C324.2 575.1 324.1 574 324.7 573.4C325.3 572.8 326.4 572.8 327.1 573.5Z" fill="white"/>
<path d="M413.8 619.299C414.2 619.599 414.2 620.199 413.9 620.599C413.5 620.899 413 620.899 412.6 620.499C412.2 620.099 412.1 619.499 412.5 619.199C412.8 618.799 413.4 618.899 413.8 619.299Z" fill="white"/>
<path d="M274.4 515.099C275.1 515.799 275.2 516.899 274.6 517.499C273.9 518.199 272.9 518.099 272.2 517.399C271.4 516.699 271.4 515.599 272 514.999C272.6 514.399 273.7 514.399 274.4 515.099Z" fill="white"/>
<path d="M257 519.5C257.8 520.2 257.8 521.3 257.2 521.9C256.6 522.6 255.5 522.5 254.8 521.8C254.1 521.1 254 520.1 254.6 519.4C255.3 518.8 256.3 518.8 257 519.5Z" fill="white"/>
<path d="M313.1 591.9C313.3 592.2 313.3 592.499 313.1 592.699C313 592.799 312.6 592.799 312.4 592.599C312.2 592.399 312.2 592.1 312.4 591.9C312.6 591.7 312.9 591.7 313.1 591.9Z" fill="white"/>
<path d="M355.9 596.699C356.5 597.099 356.5 597.899 356.1 598.399C355.6 598.799 354.9 598.799 354.4 598.299C353.9 597.799 353.8 596.999 354.2 596.599C354.7 596.099 355.4 596.199 355.9 596.699Z" fill="white"/>
<path d="M345.9 586.6C346.4 587.1 346.4 587.8 346 588.3C345.6 588.7 344.8 588.7 344.3 588.2C343.8 587.7 343.7 586.9 344.2 586.5C344.6 586 345.4 586.1 345.9 586.6Z" fill="white"/>
<path d="M274 547.699C274.5 548.099 274.6 548.899 274.1 549.399C273.7 549.799 272.9 549.799 272.4 549.299C271.9 548.799 271.9 547.999 272.3 547.599C272.7 547.099 273.5 547.199 274 547.699Z" fill="white"/>
<path d="M305 577.799C305.2 577.999 305.2 578.299 305.1 578.499C304.9 578.699 304.6 578.699 304.3 578.399C304.1 578.199 304.1 577.899 304.3 577.699C304.5 577.499 304.8 577.599 305 577.799Z" fill="white"/>
<path d="M260.7 516.699C261 517.099 261.1 517.699 260.8 517.999C260.4 518.299 259.9 518.299 259.5 517.899C259.1 517.599 259.1 516.999 259.4 516.699C259.7 516.299 260.3 516.399 260.7 516.699Z" fill="white"/>
<path d="M224.4 463.799C224.8 464.199 224.8 464.799 224.5 465.099C224.2 465.399 223.6 465.399 223.3 464.999C222.9 464.699 222.9 464.099 223.2 463.799C223.5 463.399 224.1 463.499 224.4 463.799Z" fill="white"/>
<path d="M306.7 547.2C306.9 547.4 306.9 547.8 306.7 548C306.5 548.2 306.2 548.2 305.9 548C305.7 547.7 305.7 547.4 305.9 547.2C306.1 546.9 306.4 547 306.7 547.2Z" fill="white"/>
<path d="M271.1 549.799C271.3 549.999 271.3 550.399 271.1 550.599C270.9 550.799 270.6 550.799 270.3 550.499C270.1 550.299 270.1 549.999 270.3 549.699C270.5 549.499 270.8 549.499 271.1 549.799Z" fill="white"/>
<path d="M261.7 521.099C261.9 521.299 261.9 521.699 261.7 521.899C261.5 522.099 261.2 522.099 260.9 521.799C260.7 521.599 260.7 521.199 260.9 520.999C261.1 520.799 261.4 520.799 261.7 521.099Z" fill="white"/>
<path d="M281.6 559.299C281.8 559.499 281.8 559.899 281.6 560.099C281.4 560.299 281.1 560.299 280.8 559.999C280.6 559.799 280.6 559.399 280.8 559.199C281 558.999 281.3 558.999 281.6 559.299Z" fill="white"/>
<path d="M283.8 551.799C284 552.099 284 552.399 283.8 552.699C283.6 552.899 283.2 552.799 283 552.599C282.8 552.399 282.7 551.999 282.9 551.799C283.2 551.599 283.5 551.599 283.8 551.799Z" fill="white"/>
<path d="M271.7 501C272 501.2 272 501.6 271.8 501.8C271.6 502 271.2 502 271 501.7C270.7 501.5 270.7 501.1 270.9 500.9C271.1 500.7 271.5 500.7 271.7 501Z" fill="white"/>
<path d="M278.3 543.7C278.4 543.8 278.4 543.999 278.3 544.099C278.2 544.199 278 544.199 277.9 544.099C277.8 543.999 277.8 543.8 277.9 543.7C278 543.6 278.1 543.6 278.3 543.7Z" fill="white"/>
<path d="M265.8 498.499C265.9 498.599 265.9 498.799 265.8 498.899C265.7 498.999 265.5 498.999 265.4 498.899C265.3 498.699 265.3 498.599 265.4 498.499C265.5 498.399 265.7 498.399 265.8 498.499Z" fill="white"/>
<path d="M271.6 506.499C271.7 506.599 271.7 506.799 271.6 506.899C271.5 506.999 271.3 506.999 271.2 506.899C271.1 506.799 271.1 506.599 271.2 506.499C271.3 506.399 271.5 506.399 271.6 506.499Z" fill="white"/>
<path d="M257.9 518.9C258.1 519 258.1 519.2 258 519.3C257.9 519.4 257.7 519.4 257.6 519.3C257.5 519.1 257.4 519 257.5 518.9C257.6 518.8 257.8 518.8 257.9 518.9Z" fill="white"/>
<path d="M279 549.999C279.1 550.099 279.1 550.299 279 550.399C278.9 550.499 278.7 550.499 278.6 550.399C278.5 550.299 278.5 550.099 278.6 549.999C278.7 549.899 278.9 549.899 279 549.999Z" fill="white"/>
<g style="mix-blend-mode:soft-light">
<path d="M280.3 469.899C280.9 470.499 280.9 471.399 280.4 471.899C279.9 472.399 279.1 472.299 278.5 471.799C277.9 471.199 277.9 470.299 278.4 469.799C278.9 469.299 279.7 469.399 280.3 469.899Z" fill="white"/>
</g>
<g style="mix-blend-mode:soft-light">
<path d="M330.8 555.299C331.3 555.799 331.4 556.699 330.9 557.199C330.4 557.699 329.6 557.699 329 557.099C328.4 556.599 328.3 555.699 328.8 555.199C329.3 554.699 330.2 554.699 330.8 555.299Z" fill="white"/>
</g>
<g style="mix-blend-mode:soft-light">
<path d="M315.2 588.099C315.4 588.299 315.4 588.599 315.3 588.699C315.1 588.899 314.9 588.799 314.7 588.699C314.5 588.499 314.5 588.299 314.6 588.099C314.8 587.999 315 587.999 315.2 588.099Z" fill="white"/>
</g>
<g style="mix-blend-mode:soft-light">
<path d="M353.8 573.8C354.2 574.2 354.2 574.8 353.9 575.1C353.6 575.5 352.9 575.5 352.5 575.1C352.1 574.7 352.1 574.1 352.4 573.7C352.8 573.4 353.4 573.4 353.8 573.8Z" fill="white"/>
</g>
<g style="mix-blend-mode:soft-light">
<path d="M345.8 565.699C346.2 566.099 346.2 566.699 345.9 567.099C345.5 567.399 344.9 567.399 344.5 566.999C344.1 566.599 344 565.999 344.4 565.699C344.7 565.299 345.4 565.299 345.8 565.699Z" fill="white"/>
</g>
<g style="mix-blend-mode:soft-light">
<path d="M288.3 534.599C288.7 534.999 288.7 535.599 288.4 535.999C288 536.299 287.4 536.3 287 535.9C286.6 535.5 286.6 534.899 286.9 534.499C287.3 534.199 287.9 534.199 288.3 534.599Z" fill="white"/>
</g>
<g style="mix-blend-mode:soft-light">
<path d="M307.3 589.3C307.4 589.3 307.4 589.5 307.3 589.5C307.3 589.6 307.2 589.6 307.1 589.5C307 589.4 307 589.3 307.1 589.3C307.1 589.2 307.2 589.2 307.3 589.3Z" fill="white"/>
</g>
<g style="mix-blend-mode:soft-light">
<path d="M286 536.299C286.1 536.499 286.2 536.799 286 536.999C285.8 537.099 285.6 537.099 285.4 536.899C285.2 536.699 285.1 536.499 285.3 536.299C285.5 536.099 285.8 536.099 286 536.299Z" fill="white"/>
</g>
<g style="mix-blend-mode:soft-light">
<path d="M294.3 543.9C294.5 544.1 294.5 544.399 294.4 544.499C294.2 544.699 293.9 544.699 293.7 544.499C293.5 544.299 293.5 544 293.7 543.9C293.9 543.7 294.1 543.7 294.3 543.9Z" fill="white"/>
</g>
<g style="mix-blend-mode:soft-light">
<path d="M296.1 538C296.3 538.2 296.3 538.4 296.1 538.6C296 538.8 295.7 538.8 295.5 538.6C295.3 538.4 295.3 538.1 295.4 537.9C295.6 537.8 295.9 537.8 296.1 538Z" fill="white"/>
</g>
<g style="mix-blend-mode:soft-light">
<path d="M291.7 531.499C291.8 531.599 291.8 531.699 291.7 531.799C291.6 531.899 291.5 531.899 291.4 531.799C291.3 531.699 291.3 531.499 291.4 531.499C291.5 531.399 291.6 531.399 291.7 531.499Z" fill="white"/>
</g>
<g style="mix-blend-mode:soft-light">
<path d="M292.3 536.499C292.4 536.599 292.4 536.699 292.3 536.799C292.2 536.899 292.1 536.899 292 536.799C291.9 536.699 291.9 536.599 291.9 536.499C292 536.399 292.2 536.399 292.3 536.499Z" fill="white"/>
</g>
<path d="M262 517.2C262.2 517.3 262.2 517.499 262.1 517.599C262 517.699 261.8 517.699 261.7 517.599C261.5 517.499 261.5 517.3 261.6 517.2C261.7 517.1 261.9 517.1 262 517.2Z" fill="white"/>
<path d="M273.4 541.699C273.6 541.999 273.7 542.299 273.5 542.599C273.3 542.799 272.9 542.699 272.7 542.499C272.4 542.299 272.4 541.899 272.6 541.699C272.8 541.499 273.2 541.499 273.4 541.699Z" fill="white"/>
<path d="M261.8 506.699C262 506.899 262 507.299 261.8 507.499C261.6 507.699 261.2 507.699 261 507.399C260.8 507.199 260.7 506.899 261 506.599C261.2 506.399 261.5 506.499 261.8 506.699Z" fill="white"/>
<path d="M261.7 514.199C262 514.399 262 514.799 261.8 514.999C261.6 515.199 261.2 515.199 261 514.899C260.8 514.699 260.7 514.299 260.9 514.099C261.1 513.899 261.5 513.899 261.7 514.199Z" fill="white"/>
<path d="M430.8 636.399C431.2 636.799 431.2 637.399 430.9 637.699C430.6 638.099 430 637.999 429.6 637.699C429.2 637.299 429.1 636.699 429.5 636.299C429.8 635.999 430.4 635.999 430.8 636.399Z" fill="white"/>
<path d="M421.3 638.8C421.7 639.2 421.7 639.8 421.4 640.2C421 640.5 420.5 640.499 420.1 640.099C419.7 639.699 419.6 639.1 420 638.8C420.3 638.4 420.9 638.4 421.3 638.8Z" fill="white"/>
<path d="M423.3 637.299C423.5 637.499 423.5 637.799 423.3 637.999C423.1 638.199 422.8 638.099 422.6 637.899C422.4 637.699 422.4 637.399 422.6 637.299C422.8 637.099 423.1 637.099 423.3 637.299Z" fill="white"/>
<path d="M423.8 639.699C424 639.799 424 639.999 423.9 640.099C423.7 640.199 423.5 640.199 423.4 640.099C423.3 639.999 423.3 639.799 423.4 639.599C423.5 639.499 423.7 639.499 423.8 639.699Z" fill="white"/>
<path d="M429.3 631.7C429.3 631.8 429.3 631.8 429.3 631.9C429.2 632 429.1 632 429 631.9C429 631.8 429 631.7 429 631.7C429.1 631.6 429.2 631.6 429.3 631.7Z" fill="white"/>
<path d="M421.8 638.499C421.8 638.499 421.9 638.599 421.8 638.699C421.7 638.699 421.6 638.699 421.6 638.699C421.5 638.599 421.5 638.499 421.6 638.499C421.6 638.399 421.7 638.399 421.8 638.499Z" fill="white"/>
<path d="M424 637.599C424.1 637.599 424.1 637.699 424 637.799C423.933 637.866 423.866 637.866 423.8 637.799C423.8 637.699 423.8 637.6 423.8 637.5C423.9 637.5 424 637.499 424 637.599Z" fill="white"/>
<path d="M423.9 631.8C424 631.9 424 632.1 423.9 632.2C423.8 632.3 423.6 632.3 423.5 632.2C423.3 632.1 423.3 631.9 423.4 631.8C423.5 631.6 423.7 631.7 423.9 631.8Z" fill="white"/>
<path d="M423.9 635.9C424 636 424 636.2 423.9 636.3C423.8 636.4 423.6 636.4 423.5 636.3C423.3 636.2 423.3 636 423.4 635.9C423.5 635.8 423.7 635.8 423.9 635.9Z" fill="white"/>
<path d="M247 522.099C247.3 522.399 247.3 522.699 247.1 522.899C246.9 523.199 246.5 523.099 246.3 522.899C246 522.699 246 522.299 246.2 522.099C246.4 521.899 246.8 521.899 247 522.099Z" fill="white"/>
</g>
<path d="M178.7 502.1C178.7 502.1 173.9 516.7 170.5 520.5C167 524.4 141.2 526.5 141.2 526.5C141.2 526.5 122.4 516 120.1 510.1C119.9 509.5 119.7 508.5 119.5 507.2C117.8 496.2 117.9 463.8 121.9 459.2C121.9 459.2 128.9 450.1 133.5 447.5C138 444.9 161.3 453.3 165.2 456C165.8 456.5 166.3 457.1 166.8 457.8C166.8 457.8 166.833 457.9 166.9 458.1C169 461.6 169 467.2 169 467.6C169 467.6 174.7 471 175.7 473.8V474C176.8 477.4 178.7 502.1 178.7 502.1Z" fill="url(#paint11_linear_528_306250)"/>
<path d="M178.7 502.1C178.7 502.1 173.9 516.7 170.5 520.5C167 524.4 141.2 526.5 141.2 526.5C141.2 526.5 122.4 516 120.1 510.1C119.9 509.5 119.7 508.5 119.5 507.2C120 507.6 127.7 514.8 133 516.4C138.4 518.1 143.1 516.4 143.1 516.4L144.3 507.2L145.3 493.4L146.3 478.3L148.6 470.2V484.8C148.6 484.8 154.6 479.9 155 476.3C155.4 472.6 158 466.6 158 466.6L166.8 457.8C166.8 457.8 166.833 457.9 166.9 458.1C167.6 459 169.6 462.5 169 467.6L164.1 478.9L163.5 490.5L166.5 503.8C166.5 503.8 170.3 498.7 171.9 496.3C173.6 493.9 173.6 486.7 173.6 486.7L175.7 473.8V474C176.8 477.4 178.7 502.1 178.7 502.1Z" fill="url(#paint12_linear_528_306250)"/>
<path d="M121 460.8L144.7 466.3H155.3L159.3 465.3L166.8 457.8C166.8 457.8 166.1 454 161.8 452.2C157.6 450.4 134.9 445.2 134.9 445.2L132.3 447C132.3 447 123.1 456.6 121 460.8Z" fill="url(#paint13_linear_528_306250)"/>
<path d="M169 467.6L164.1 478.9L170 480.4L174.9 478.6L175.7 474C175.7 474 172.5 469.1 169 467.6Z" fill="url(#paint14_linear_528_306250)"/>
<path d="M584.1 333.4L580.8 354.9C580.8 354.9 569.3 358.7 567.6 362.4C565.8 366.1 558.5 432.9 558.5 432.9L550.6 439.1C550.6 439.1 545.7 451.3 541.7 449.9C537.7 448.6 533.6 431.9 533.6 431.9C533.6 431.9 533 431.2 532 429.9C531 428.6 529.7 426.7 528.2 424.4C526.5 421.5 524.5 410.2 523.2 402.1C522.4 397.2 522 393.4 522 393.4L501.9 389.2L499.4 384.3L482.8 374.2C478 349.5 483.1 318.3 483.1 318.3C488.6 314 513.7 308.1 522 308.8C529.8 309.5 546 315 548 315.7H548.2L551 331.5C564.3 327.6 584.1 333.4 584.1 333.4Z" fill="url(#paint15_linear_528_306250)"/>
<path d="M584.1 333.4L580.8 354.9C580.8 354.9 569.3 358.7 567.6 362.4C565.8 366.1 558.5 432.9 558.5 432.9L550.6 439.1C550.6 439.1 545.7 451.3 541.7 449.9C537.7 448.6 533.6 431.9 533.6 431.9C533.6 431.9 533 431.2 532 429.9L536.1 428L543.5 434.6L546.9 425.6L548.8 375.9L538 379L525.3 393.8L523.2 402.1C522.4 397.2 522 393.4 522 393.4L501.9 389.2L499.4 384.3L482.8 374.2L494.1 376.1L495.7 364.5L499.6 381.8L504.8 382L516.6 378.8C516.6 378.8 520.3 371.2 521.4 367.2C522.4 363.1 525 336.9 525 336.9L525.9 313L532.4 311.3L548 315.7H548.2L551 331.5C564.3 327.6 584.1 333.4 584.1 333.4Z" fill="url(#paint16_linear_528_306250)"/>
</g>
</g>
<defs>
<linearGradient id="paint0_linear_528_306250" x1="173.322" y1="603.73" x2="173.322" y2="519.697" gradientUnits="userSpaceOnUse">
<stop stop-color="#B58BFF"/>
<stop offset="1" stop-color="#653FC8"/>
</linearGradient>
<linearGradient id="paint1_linear_528_306250" x1="185.922" y1="517.896" x2="258.172" y2="517.896" gradientUnits="userSpaceOnUse">
<stop stop-color="#C5C4FF"/>
<stop offset="1" stop-color="#F9BBFF"/>
</linearGradient>
<linearGradient id="paint2_linear_528_306250" x1="168.648" y1="607.538" x2="168.648" y2="519.696" gradientUnits="userSpaceOnUse">
<stop stop-color="#A67CFF"/>
<stop offset="1" stop-color="#6025B6"/>
</linearGradient>
<linearGradient id="paint3_linear_528_306250" x1="361.367" y1="617.125" x2="361.367" y2="486.816" gradientUnits="userSpaceOnUse">
<stop stop-color="#B58BFF"/>
<stop offset="1" stop-color="#653FC8"/>
</linearGradient>
<linearGradient id="paint4_linear_528_306250" x1="272.278" y1="472.522" x2="521.829" y2="472.522" gradientUnits="userSpaceOnUse">
<stop stop-color="#C5C4FF"/>
<stop offset="1" stop-color="#F9BBFF"/>
</linearGradient>
<linearGradient id="paint5_linear_528_306250" x1="278.349" y1="622.514" x2="278.349" y2="491.012" gradientUnits="userSpaceOnUse">
<stop stop-color="#A67CFF"/>
<stop offset="1" stop-color="#6025B6"/>
</linearGradient>
<linearGradient id="paint6_linear_528_306250" x1="390.861" y1="611.234" x2="390.861" y2="488.052" gradientUnits="userSpaceOnUse">
<stop stop-color="#A67CFF"/>
<stop offset="1" stop-color="#6025B6"/>
</linearGradient>
<linearGradient id="paint7_linear_528_306250" x1="441.492" y1="477.875" x2="482.246" y2="477.875" gradientUnits="userSpaceOnUse">
<stop stop-color="#7963EC"/>
<stop offset="1" stop-color="#6025B6"/>
</linearGradient>
<linearGradient id="paint8_linear_528_306250" x1="305.253" y1="527.912" x2="305.253" y2="491.012" gradientUnits="userSpaceOnUse">
<stop stop-color="#514DAE"/>
<stop offset="0.978" stop-color="#4C25A9"/>
</linearGradient>
<linearGradient id="paint9_linear_528_306250" x1="461.966" y1="541.459" x2="461.966" y2="488.053" gradientUnits="userSpaceOnUse">
<stop stop-color="#514DAE"/>
<stop offset="0.978" stop-color="#4C25A9"/>
</linearGradient>
<linearGradient id="paint10_linear_528_306250" x1="366.129" y1="537.696" x2="366.129" y2="494.233" gradientUnits="userSpaceOnUse">
<stop stop-color="#514DAE"/>
<stop offset="0.978" stop-color="#4C25A9"/>
</linearGradient>
<linearGradient id="paint11_linear_528_306250" x1="96.146" y1="526.451" x2="96.146" y2="447.008" gradientUnits="userSpaceOnUse">
<stop stop-color="#B58BFF"/>
<stop offset="1" stop-color="#653FC8"/>
</linearGradient>
<linearGradient id="paint12_linear_528_306250" x1="109.251" y1="526.451" x2="109.251" y2="457.797" gradientUnits="userSpaceOnUse">
<stop stop-color="#A67CFF"/>
<stop offset="1" stop-color="#6025B6"/>
</linearGradient>
<linearGradient id="paint13_linear_528_306250" x1="120.984" y1="445.242" x2="166.754" y2="445.242" gradientUnits="userSpaceOnUse">
<stop stop-color="#C5C4FF"/>
<stop offset="1" stop-color="#F9BBFF"/>
</linearGradient>
<linearGradient id="paint14_linear_528_306250" x1="164.07" y1="467.645" x2="175.738" y2="467.645" gradientUnits="userSpaceOnUse">
<stop stop-color="#C5C4FF"/>
<stop offset="1" stop-color="#F9BBFF"/>
</linearGradient>
<linearGradient id="paint15_linear_528_306250" x1="432.483" y1="445.753" x2="437.955" y2="305.549" gradientUnits="userSpaceOnUse">
<stop stop-color="#BA7FE2"/>
<stop offset="1" stop-color="#FFE3FF"/>
</linearGradient>
<linearGradient id="paint16_linear_528_306250" x1="433.925" y1="445.809" x2="439.316" y2="307.677" gradientUnits="userSpaceOnUse">
<stop stop-color="#B28EFF"/>
<stop offset="1" stop-color="#6032C0"/>
</linearGradient>
<clipPath id="clip0_528_306250">
<rect width="1592" height="708" fill="white"/>
</clipPath>
</defs>
</svg>
