<svg width="1592" height="708" viewBox="0 0 1592 708" fill="none" xmlns="http://www.w3.org/2000/svg">
<g clip-path="url(#clip0_528_304834)">
<mask id="mask0_528_304834" style="mask-type:luminance" maskUnits="userSpaceOnUse" x="0" y="-1" width="1594" height="709">
<path d="M1593.46 708H0V-0.199951H1593.46V708Z" fill="white"/>
</mask>
<g mask="url(#mask0_528_304834)">
<path d="M1220.73 353.2L1217.53 390.2L1218.13 396.1C1212.03 427.2 1200.33 456.4 1200.33 456.4C1194.33 462.1 1169.73 473.3 1169.73 473.3L1155.03 502.9C1146.33 511.3 1127.03 514.5 1127.03 514.5L1126.93 519.9C1114.73 518.4 1096.43 511 1096.43 511L1091.73 495C1085.93 491.9 1064.93 477.3 1064.93 477.3L1060.33 458.4C1060.33 458.4 1044.83 444.2 1043.83 437.7C1043.73 436.9 1043.43 435.2 1043.03 432.7C1039.83 413.4 1029.13 349.6 1029.13 349.6C1029.13 349.6 1026.73 343.9 1027.03 338.8C1027.33 333.7 1028.93 317.9 1028.93 317.9C1028.93 317.9 1102.33 298.9 1114.93 297.9C1127.43 297 1178.53 297.7 1178.53 297.7L1179.83 260.9L1197.63 240.7C1201.23 244.9 1203.63 250.3 1205.23 255.3C1205.36 255.7 1205.46 256.067 1205.53 256.4H1205.63C1206.63 259.8 1207.23 263 1207.63 265.2V265.3V265.5C1208.03 267.6 1208.13 268.9 1208.13 268.9L1207.13 250.7L1214.13 239.6C1216.53 225.9 1216.13 198.8 1216.13 198.8L1221.43 194.8L1222.83 170.7L1231.43 168.9L1236.53 200.3L1240.83 208.2C1240.83 208.2 1239.73 244.4 1238.63 259.5C1237.53 274.7 1241.33 320 1241.33 320C1233.73 340.9 1220.73 353.2 1220.73 353.2Z" fill="url(#paint0_linear_528_304834)"/>
<path d="M1028.93 317.9L1049.03 326.9C1049.03 326.9 1070.33 321.4 1072.43 319.6C1074.53 317.8 1089.63 307.2 1089.63 307.2L1127.33 304.2L1129.63 314.6C1129.63 314.6 1140.63 313.6 1152.33 312C1164.03 310.4 1171.53 311.4 1175.93 308.3C1180.33 305.2 1178.93 303.1 1184.53 302.6C1190.13 302.2 1195.73 301.8 1195.73 301.8L1178.53 297.7C1178.53 297.7 1130.13 298.7 1114.93 297.9C1099.73 297.1 1036.93 312.7 1028.93 317.9Z" fill="url(#paint1_linear_528_304834)"/>
<path d="M1065.13 397.7L1054.53 408.9C1054.53 408.9 1082.73 412.7 1091.43 413.3C1100.13 414 1121.03 412.6 1121.03 412.6C1121.03 412.6 1154.13 406.7 1163.93 405.7C1173.63 404.7 1209.43 397.5 1209.43 397.5L1216.63 395.1L1209.63 391.5C1209.63 391.5 1190.53 390.9 1183.03 394C1175.63 397 1149.13 402.2 1140.03 404.5C1130.93 406.9 1113.43 407.2 1113.43 407.2C1113.43 407.2 1073.63 397.3 1065.13 397.7Z" fill="url(#paint2_linear_528_304834)"/>
<path d="M1179.83 260.9L1191.53 265.8C1191.53 265.8 1198.13 264.2 1200.73 261.8C1203.33 259.3 1205.33 255.2 1205.33 255.2C1205.33 255.2 1201.13 244.9 1197.53 240.7C1197.53 240.7 1185.53 251.7 1179.83 260.9Z" fill="url(#paint3_linear_528_304834)"/>
<path d="M1207.13 250.7C1207.13 250.7 1216.13 249.3 1221.43 249.2C1226.83 249 1234.33 245.1 1234.33 245.1L1234.53 239.7L1214.13 239.6C1214.13 239.6 1208.93 246.2 1207.13 250.7Z" fill="url(#paint4_linear_528_304834)"/>
<path d="M1216.23 198.8L1222.83 209L1233.13 213.1L1238.93 214.8L1228.63 208.6L1224.73 199.1L1221.43 194.8L1216.23 198.8Z" fill="url(#paint5_linear_528_304834)"/>
<path d="M1222.83 170.7L1225.63 185L1230.43 189.2L1231.93 181.6L1231.43 168.9L1222.83 170.7Z" fill="url(#paint6_linear_528_304834)"/>
<path d="M1218.73 306.7L1210.23 315.5L1197.63 318.6L1188.53 318.3L1200.83 312.4L1206.13 305.7L1209.53 300.5L1218.73 306.7Z" fill="url(#paint7_linear_528_304834)"/>
<path d="M1220.73 353.2L1217.53 390.2L1218.13 396.1C1212.03 427.2 1200.33 456.4 1200.33 456.4C1194.33 462.1 1169.73 473.3 1169.73 473.3L1155.03 502.9C1146.33 511.3 1127.03 514.5 1127.03 514.5L1126.93 519.9C1114.73 518.4 1096.43 511 1096.43 511L1091.73 495C1085.93 491.9 1064.93 477.3 1064.93 477.3L1060.33 458.4C1060.33 458.4 1044.83 444.2 1043.83 437.7C1043.73 436.9 1043.43 435.2 1043.03 432.7L1053.53 438.9L1058.33 430.7L1057.03 409L1063.63 444.4L1064.53 467.8L1069.43 474L1086.13 484L1100.43 496.7L1111.93 489.5L1113.93 427.3L1110.63 418.7L1115.63 423.9L1120.63 467.6L1123.43 491.9L1142.43 492.6L1154.83 475.5L1168.43 461.3L1185.63 443.3L1195.63 422.8L1205.63 398.8L1216.63 395.1L1209.63 391.5L1188.03 392.7L1170.23 397.6C1170.23 397.6 1146.13 403.1 1137.33 405.1C1128.43 407.2 1113.43 407.2 1113.43 407.2L1081.43 400L1079.53 390.5L1073.93 375.6L1073.03 340.7L1072.43 319.6L1089.63 307.2L1127.33 304.2L1129.63 314.6L1129.13 378.6L1138.83 402L1154.33 397.1L1171.53 377.6L1174.93 340.2L1175.93 308.3C1181.33 302 1184.53 302.6 1184.53 302.6L1184.33 310.3L1187.03 364.5L1191.43 349.7L1190.53 319.6L1197.63 318.6L1210.23 315.5L1217.33 309.7L1208.43 304.3L1199.23 313.2L1195.73 301.8L1194.53 286.8L1191.53 265.8L1200.73 261.8L1205.23 255.3L1205.33 255.2L1205.53 256.4H1205.63L1207.63 265.2V265.3V265.4V265.5L1209.53 300.5L1218.83 306.7L1218.93 324.3L1229.63 317.3L1231.13 310.7C1231.13 310.7 1227.53 297 1228.43 285.7C1229.43 274.4 1233.93 256.8 1233.93 256.8L1234.53 239.7L1234.23 214.7L1238.93 214.8L1235.43 212L1235.63 206C1235.63 206 1233.03 203.9 1231.83 201.1C1230.63 198.3 1230.43 189.2 1230.43 189.2L1231.93 181.6L1231.43 168.9L1236.53 200.3L1240.83 208.2C1240.83 208.2 1239.73 244.4 1238.63 259.5C1237.53 274.7 1241.33 320 1241.33 320C1233.73 340.9 1220.73 353.2 1220.73 353.2Z" fill="url(#paint8_linear_528_304834)"/>
<path d="M1250.83 90.2001C1250.83 90.2001 1249.63 115.8 1245.03 134L1238.73 142.3C1238.73 142.3 1236.43 157.9 1234.73 161.9C1233.13 165.9 1225.13 161.6 1225.13 161.6C1225.13 161.6 1221.73 148.9 1219.63 132.9C1218.03 121.4 1217.23 108.3 1218.83 97.1001C1218.83 97.1001 1228.43 88.0001 1236.63 86.7001C1240.83 86.1001 1244.43 87.0001 1247.03 88.1001H1247.13C1249.23 89.0001 1250.53 90.0001 1250.83 90.2001Z" fill="url(#paint9_linear_528_304834)"/>
<path d="M1250.83 90.2001C1250.83 90.2001 1249.63 115.8 1245.03 134L1238.73 142.3C1238.73 142.3 1236.43 157.9 1234.73 161.9C1233.13 165.9 1225.13 161.6 1225.13 161.6C1225.13 161.6 1221.73 148.9 1219.63 132.9L1223.53 149.1L1233.93 145.9L1235.13 137.5L1239.13 101.9L1238.13 130.2L1243.73 124L1244.13 112.6L1247.03 88.1001H1247.13L1250.83 90.2001Z" fill="url(#paint10_linear_528_304834)"/>
<path d="M1278.73 438L1271.93 445.2L1260.63 456.4C1260.63 456.4 1259.63 465.2 1255.53 469.1C1251.33 473.1 1246.73 473.5 1246.73 473.5L1244.13 462.6C1244.13 462.6 1235.33 459 1232.13 456.5C1231.66 456.1 1231.33 455.734 1231.13 455.4C1229.63 453.1 1225.63 415.3 1226.83 405C1226.96 404 1227.13 403.267 1227.33 402.8C1235.83 386.4 1262.13 390.8 1262.13 390.8L1267.33 402.2C1267.33 402.2 1271.93 402 1275.83 403.3C1277.53 403.9 1279.13 404.8 1280.13 406.2C1280.66 406.867 1281.03 407.634 1281.23 408.5C1282.63 415.4 1278.73 438 1278.73 438Z" fill="url(#paint11_linear_528_304834)"/>
<path d="M1281.23 408.5C1276.43 407.5 1264.13 408.6 1264.13 408.6L1262.73 410.6C1252.33 411.9 1228.43 405.4 1226.83 405C1226.96 404 1227.13 403.267 1227.33 402.8C1235.83 386.4 1262.13 390.8 1262.13 390.8L1267.33 402.2C1267.33 402.2 1279.73 401.6 1281.23 408.5Z" fill="url(#paint12_linear_528_304834)"/>
<path d="M1278.73 438L1276.53 421L1268.43 425.3L1261.43 450.1L1256.43 455.3L1250.43 456.2L1244.13 462.6C1244.13 462.6 1235.33 459 1232.13 456.5L1231.13 455.4L1243.73 455.8L1252.63 448.5L1257.63 434.1L1262.73 410.6L1261.23 406.1L1275.83 403.3L1280.13 406.2C1280.66 406.867 1281.03 407.634 1281.23 408.5C1282.63 415.4 1278.73 438 1278.73 438Z" fill="url(#paint13_linear_528_304834)"/>
<g opacity="0.5">
<path d="M430.8 636.4C431.2 636.8 431.2 637.4 430.9 637.7C430.6 638.1 430 638 429.6 637.7C429.2 637.3 429.1 636.7 429.5 636.3C429.8 636 430.4 636 430.8 636.4Z" fill="white"/>
<path d="M421.3 638.8C421.7 639.2 421.7 639.8 421.4 640.2C421 640.5 420.5 640.5 420.1 640.1C419.7 639.7 419.6 639.1 420 638.8C420.3 638.4 420.9 638.4 421.3 638.8Z" fill="white"/>
<path d="M423.3 637.3C423.5 637.5 423.5 637.8 423.3 638C423.1 638.2 422.8 638.1 422.6 637.9C422.4 637.7 422.4 637.4 422.6 637.3C422.8 637.1 423.1 637.1 423.3 637.3Z" fill="white"/>
<path d="M423.8 639.7C424 639.8 424 640 423.9 640.1C423.7 640.2 423.5 640.2 423.4 640.1C423.3 640 423.3 639.8 423.4 639.6C423.5 639.5 423.7 639.5 423.8 639.7Z" fill="white"/>
<path d="M429.3 631.7C429.3 631.8 429.3 631.8 429.3 631.9C429.2 632 429.1 632 429 631.9C429 631.8 429 631.7 429 631.7C429.1 631.6 429.2 631.6 429.3 631.7Z" fill="white"/>
<path d="M421.8 638.5C421.8 638.5 421.9 638.6 421.8 638.7C421.7 638.7 421.6 638.7 421.6 638.7C421.5 638.6 421.5 638.5 421.6 638.5C421.6 638.4 421.7 638.4 421.8 638.5Z" fill="white"/>
<path d="M424 637.6C424.1 637.6 424.1 637.7 424 637.8C423.933 637.867 423.867 637.867 423.8 637.8C423.8 637.7 423.8 637.6 423.8 637.5C423.9 637.5 424 637.5 424 637.6Z" fill="white"/>
<path d="M423.9 631.8C424 631.9 424 632.1 423.9 632.2C423.8 632.3 423.6 632.3 423.5 632.2C423.3 632.1 423.3 631.9 423.4 631.8C423.5 631.6 423.7 631.7 423.9 631.8Z" fill="white"/>
<path d="M423.9 635.9C424 636 424 636.2 423.9 636.3C423.8 636.4 423.6 636.4 423.5 636.3C423.3 636.2 423.3 636 423.4 635.9C423.5 635.8 423.7 635.8 423.9 635.9Z" fill="white"/>
</g>
</g>
</g>
<defs>
<linearGradient id="paint0_linear_528_304834" x1="834.245" y1="510.205" x2="846.006" y2="156.136" gradientUnits="userSpaceOnUse">
<stop offset="0.006" stop-color="#AF9DFF"/>
<stop offset="1" stop-color="#7D51DD"/>
</linearGradient>
<linearGradient id="paint1_linear_528_304834" x1="1029.76" y1="292.715" x2="1195.85" y2="298.231" gradientUnits="userSpaceOnUse">
<stop stop-color="#B291FF"/>
<stop offset="1" stop-color="#BA7FE2"/>
</linearGradient>
<linearGradient id="paint2_linear_528_304834" x1="1055.32" y1="386.325" x2="1216.74" y2="391.688" gradientUnits="userSpaceOnUse">
<stop stop-color="#B291FF"/>
<stop offset="1" stop-color="#D193EC"/>
</linearGradient>
<linearGradient id="paint3_linear_528_304834" x1="1180.48" y1="240.139" x2="1205.77" y2="240.98" gradientUnits="userSpaceOnUse">
<stop stop-color="#967FFF"/>
<stop offset="1" stop-color="#BA7FE2"/>
</linearGradient>
<linearGradient id="paint4_linear_528_304834" x1="1207.51" y1="238.842" x2="1234.51" y2="239.738" gradientUnits="userSpaceOnUse">
<stop stop-color="#967FFF"/>
<stop offset="1" stop-color="#BA7FE2"/>
</linearGradient>
<linearGradient id="paint5_linear_528_304834" x1="1216.32" y1="194.612" x2="1239.56" y2="195.384" gradientUnits="userSpaceOnUse">
<stop stop-color="#967FFF"/>
<stop offset="1" stop-color="#BA7FE2"/>
</linearGradient>
<linearGradient id="paint6_linear_528_304834" x1="1222.92" y1="168.649" x2="1232.34" y2="168.962" gradientUnits="userSpaceOnUse">
<stop stop-color="#967FFF"/>
<stop offset="1" stop-color="#BA7FE2"/>
</linearGradient>
<linearGradient id="paint7_linear_528_304834" x1="1189.17" y1="299.774" x2="1218.97" y2="300.764" gradientUnits="userSpaceOnUse">
<stop stop-color="#967FFF"/>
<stop offset="1" stop-color="#BA7FE2"/>
</linearGradient>
<linearGradient id="paint8_linear_528_304834" x1="814.924" y1="509.563" x2="826.686" y2="155.494" gradientUnits="userSpaceOnUse">
<stop stop-color="#B28EFF"/>
<stop offset="1" stop-color="#6032C0"/>
</linearGradient>
<linearGradient id="paint9_linear_528_304834" x1="1139.67" y1="160.555" x2="1142.24" y2="83.2901" gradientUnits="userSpaceOnUse">
<stop stop-color="#7D51DD"/>
<stop offset="0.994" stop-color="#AF9DFF"/>
</linearGradient>
<linearGradient id="paint10_linear_528_304834" x1="1136.71" y1="160.457" x2="1139.23" y2="84.4941" gradientUnits="userSpaceOnUse">
<stop stop-color="#6032C0"/>
<stop offset="1" stop-color="#B28EFF"/>
</linearGradient>
<linearGradient id="paint11_linear_528_304834" x1="1227.27" y1="389.289" x2="1282.25" y2="391.116" gradientUnits="userSpaceOnUse">
<stop stop-color="#967FED"/>
<stop offset="1" stop-color="#9D70DD"/>
</linearGradient>
<linearGradient id="paint12_linear_528_304834" x1="1227.37" y1="389.292" x2="1281.75" y2="391.099" gradientUnits="userSpaceOnUse">
<stop stop-color="#B291FF"/>
<stop offset="1" stop-color="#D193EC"/>
</linearGradient>
<linearGradient id="paint13_linear_528_304834" x1="1218.29" y1="461.737" x2="1220.3" y2="401.501" gradientUnits="userSpaceOnUse">
<stop stop-color="#7951CA"/>
<stop offset="1" stop-color="#7E74E2"/>
</linearGradient>
<clipPath id="clip0_528_304834">
<rect width="1592" height="708" fill="white"/>
</clipPath>
</defs>
</svg>
