<svg width="1594" height="709" viewBox="0 0 1594 709" fill="none" xmlns="http://www.w3.org/2000/svg">
<mask id="mask0_528_306640" style="mask-type:luminance" maskUnits="userSpaceOnUse" x="0" y="0" width="1594" height="709">
<path d="M1593.46 708.2H0V0H1593.46V708.2Z" fill="white"/>
</mask>
<g mask="url(#mask0_528_306640)">
<path d="M465 275.5C465 363 394 433.9 306.5 433.9C232.1 433.9 169.7 382.7 152.6 313.6C149.6 301.4 148 288.6 148 275.5C148 269.633 148.3 263.9 148.9 258.3C157.5 178.8 224.8 117 306.5 117C394 117 465 187.9 465 275.5Z" fill="url(#paint0_radial_528_306640)"/>
<path style="mix-blend-mode:multiply" opacity="0.2" d="M465 275.5C465 363 394 433.9 306.5 433.9C232.1 433.9 169.7 382.7 152.6 313.6C153.067 314.133 153.5 314.7 153.9 315.3C154.8 316.5 155.3 317.7 155.7 319.1C156 319.9 155.9 320.8 156.1 321.6C156.5 322.9 157.6 323.6 157.1 322C157.8 323.5 158 324.8 158.6 326.2C159.6 328.3 160.3 330.2 160.9 332.4C161.5 334.2 161.8 336 162.3 337.8C162.8 339.4 163.7 340.9 164.3 342.4C166.2 347.4 169 351.4 171.9 355.8C172.7 356.9 173.1 358.2 173.9 359.3C174.8 360.4 175.9 361.5 176.8 362.6C177.7 363.8 179.2 364.7 180.5 365.5C181.9 366.3 183 367.4 184.3 368.3C186.6 369.8 189.3 370.3 192 370.2C194.9 370.2 197.9 369.3 200.8 370.1C205.9 371.4 206.5 378 209.1 381.7C210.3 383.3 212.1 384.2 213.9 384.7C216.1 385.3 217.9 386.1 219.7 387.5C221 388.5 222.8 389.3 224.5 389.4C226.3 389.4 225.9 388.4 225.9 386.9C225.9 384.6 224.3 383.4 223 381.6C222.3 380.6 222.1 379.6 221.6 378.5C221.3 377.7 220.8 377.3 221.2 376.5C222.4 376.6 223.6 377.6 224.5 378.4C226.4 380 228.9 380.9 231.2 382C232.3 382.4 233.2 382.9 234.1 383.6C234.6 384 235.3 384.8 235.9 385C237.7 385.7 239.8 382.9 240.2 381.4C240.6 379.8 239.9 377.4 238.8 376.2C236.6 374.1 234.9 371.8 233.1 369.4C231.3 366.8 229 364.4 227.7 361.6C226.4 358.7 225.2 355.3 225.5 352.1C225.6 350.2 226.5 348.1 227.1 346.2C227.4 345.3 227.6 343.8 228.1 343C229 341.8 230.8 341.9 232.1 342.2C234.3 342.6 237.2 342.6 239.2 343.7C241.2 344.9 242.5 347.5 244.9 347.8C248.7 348.3 252.1 345.1 254.5 342.7C256.6 340.5 259.2 336.8 262.3 335.9C264.2 335.4 265.9 336.6 267.6 337.1C268.4 337.3 269.2 337.7 270 337.8C271.5 337.9 272.5 337.2 273.7 336.6C276.5 335.1 278.9 335.2 281.9 336C283.3 336.3 284.2 337.3 285.3 338C287.167 339.333 289 340.6 290.8 341.8C292.5 342.9 294.1 343.8 294.8 345.8C295.1 346.7 295.2 347 294.9 348C294.7 348.7 294.4 349.5 294.7 350.2C295.2 351.2 296.8 351.6 297.7 352.1C299 352.9 300.2 353.9 301.3 354.9C304.2 357.6 305.3 360.7 305.6 364.5C305.8 366.6 305.4 369 303.9 370.6C302.1 372.5 299.1 372.5 297.6 374.5C296.4 376.1 295.9 378.3 295.7 380.3C295.5 381.5 295.7 382.5 295.2 383.7C294.6 385.2 293.7 386.6 292.9 387.9C292.3 389.1 291.6 390 291.2 391.2C290.9 391.8 290.8 392.5 290.5 393.2C289.8 394.8 288.5 396.2 287 397C285 398.1 283 399.4 280.6 399.4C279.2 399.4 277.4 399.7 276 399.4C275.6 399.3 275.3 399 274.9 398.9C274.3 398.7 273.9 398.7 273.4 398.5C271.9 398 271.5 397.4 270.6 396C270 394.9 269.2 394.2 268.1 393.4C267.3 392.8 266.3 392.5 265.3 392C264.7 391.7 263.7 391.6 263.2 391.1C262.2 390.3 263.4 389.3 264 388.4C265.1 386.4 266.6 384.4 268.4 382.9C269.133 382.3 269.967 381.867 270.9 381.6C272.2 381.2 272.9 381.5 274 382.1C275.3 382.8 275.6 383.5 276.3 384.7C275.7 385.2 274.9 386 274.1 386.3C273.5 386.5 272.4 386.4 272.3 387.3C274.3 389.5 276 390.8 278.8 388.8C280.3 387.7 283.7 385.9 283.7 383.9C283.6 382.8 281.5 381.4 280.7 380.8C279.9 380.2 279 379.7 278.2 379.1C277.4 378.4 277 377.5 276.2 376.7C275.5 376 274.5 375.3 273.7 374.5C272.9 373.8 272.1 373.6 271.1 373.1C270.2 372.6 269.5 372 268.4 371.7C267.2 371.3 265.4 370.6 264.1 370.7C261.2 370.7 258.5 373.6 256.9 375.6C255.5 377.4 252.8 380.8 253.7 383.3C254 384.3 255 384.7 255.4 385.5C255.6 385.9 255.8 386.8 255.9 387.2C256.2 388.6 255.9 390 256.3 391.4C257.7 395.8 258.4 400.9 262.9 403.2C263.6 403.6 264.1 403.9 264.9 404.2C265.7 404.4 266.6 404.4 267.4 404.7C269.1 405.4 270.4 406.2 272.3 406.5C274.3 406.8 276.3 407 278.4 407C281.1 407 284 407.3 286.6 406.1C287.9 405.5 289.7 404.3 290.7 403.2C292 401.9 292.2 400.1 292.6 398.3C293 396.8 292.9 394.4 294.2 393.1C295.2 392.1 296.9 391.9 298 390.8C299.6 389.2 301 387 302.1 385C303.5 382.3 305.4 379.9 306.8 377.2C307.7 375.6 308.9 373.7 310.2 372.5C311.4 371.3 313.1 370.9 314.7 370.7C316.1 370.6 317.7 370.2 319 369.7C320.4 369.2 321.9 368.6 323.2 368C324.3 367.5 325.2 366.3 326.2 365.5C328.6 363.3 331.2 362.6 334.3 362C335.6 361.8 336.4 361.5 337.6 361.9C338.6 362.2 339.6 362.7 340.6 363C342 363.3 343.9 363.9 345.3 363.5C350.5 361.9 346.9 357.2 346 353.8C344.2 346.8 344.3 339.7 344.3 332.6C344.3 330.4 344 327.9 344.8 325.8C345.2 324.8 345.3 323.7 345.8 322.7C346.1 322.1 346.8 321.6 347.1 321C347.6 319.8 347.3 319.2 348.7 318.5C350.2 317.8 351.4 317.7 352.9 317.7C357.1 317.7 361.8 317.1 365.7 318.8C367.4 319.5 368.7 320.7 370.1 321.8C371.6 322.9 372.8 323.7 373 325.7C373.3 328.1 374.3 330.4 376.9 331.1C379 331.7 381.3 332.5 383.5 332.5C385 332.5 386.4 331.8 387.8 332C388.2 332.1 388.7 332.5 389 332.5C389.7 332.6 390.5 332.1 391.1 331.8C392.8 331.2 394 331.1 395.8 331.1C398.9 331.1 399.8 329.1 402 327.3C404.5 325.2 406.6 323.5 409.9 323.5C413.9 323.4 416.8 320.2 418.6 316.9C421.5 311.8 424.1 305.2 421.8 299.4C421 297.3 419.4 295.7 418.1 293.8C416.8 291.8 416.2 289.4 415.5 287.1C414.9 285.2 412.8 283 410.7 282.4C409 282 407.1 282.3 405.7 280.9C404.5 279.7 403 278 402.1 276.4C400.8 274.2 400.2 270.6 400.2 268C400.2 267.1 400 267 399.8 266.3C399.6 265.7 399.9 265 399.8 264.3C399.4 262.4 398.8 260.6 398.4 258.6C398 256.5 396.7 254.1 396.8 251.9C396.9 250.2 397.9 248.1 399.3 247C400.8 245.7 402 244.2 403.1 242.5C403.7 241.7 404.3 240.9 404.6 239.9C405 238.8 404.9 238 405 237C405.3 235.4 406.6 234.5 408.1 234.2C409 234 410 234.3 411 234.1C412.3 233.9 413.6 233 414.5 232C416.5 229.6 416.1 225.7 416 222.8C415.9 219.6 413.8 218.1 412.1 215.6C410.6 213.3 410 209.8 411.8 207.4C412.5 206.4 413.6 205.8 414 204.5C414.4 203.2 413.6 201.3 413 200.1C412 197.9 410.5 195.9 408.8 194.2C408 193.4 407.9 192.6 407.4 191.6C406.8 190.4 406 189.3 405.5 188.1C405 187 404.5 186.2 403.7 185.4C403.3 185 403.1 184.5 402.7 184C401.6 182.7 400 182 399 180.6C398.2 179.4 397.2 178.1 396.6 176.8C395.9 175.5 396 174.1 395.9 172.7C395.8 170.7 394.8 169.5 393.9 167.8C393.4 167.1 393.1 166.6 392.4 166C391.5 164.9 390.9 163.7 390.1 162.5C389.3 161.3 388 160.7 386.8 160.1C386.3 159.8 386.1 159.5 385.4 159.7C384.6 159.8 383.3 161 382.7 161.6C381.3 162.9 379.5 163.5 377.6 164.2C375.7 164.8 373.8 165.3 371.9 165.8C369.5 166.5 367 166.6 364.5 167.2C361.2 168.1 358.1 168.7 356.5 172C355.3 174.3 355.8 177.1 355.8 179.7C355.8 180.6 355.7 181.5 355.9 182.4C356.2 183.7 356.9 184.9 357.1 186.2C357.9 189.8 356.7 193.5 355.6 196.9C354.4 200.2 352.2 202.7 349.6 205C346.2 208.1 341.1 208.1 337.1 209.9C334.4 211.1 330.3 212.7 329.6 216C329 218.4 330.4 220 330.9 222.2C331.2 223.6 330.8 225.2 331.2 226.5C331.7 228.2 331.1 229.1 329.6 230.3C328.9 231 328 231.6 327.7 232.6C327.5 233.2 327.8 233.8 327.6 234.4C327.4 235.4 326.4 236.2 325.4 236.5C323.8 236.9 322.1 236.9 320.6 237.9C319.2 238.8 318.6 240.2 316.9 240.6C315.6 240.9 314.6 240.6 313.2 240.5C310.9 240.2 308.6 240.2 306.3 239.7C302.3 238.9 298.6 238.2 294.4 238.4C291.1 238.6 289.3 239.4 286.2 237.6C284.2 236.4 282.3 235.1 280.2 234.1C277.9 232.9 275.4 232.1 272.9 231.1C269.2 229.7 265.4 228.9 261.6 227.8C257.7 226.8 255 223.3 252.3 220.6C249.6 218 247.3 214.8 246.4 211.1C245.8 208.7 246.1 206.9 246.4 204.5C247.1 199.2 244.4 194.3 245.2 189C246.1 183.5 246.5 177.8 248.8 172.6C249.8 170.4 251.5 168.6 252.6 166.4C253.8 164.1 256 163.1 258.3 162.1C259.9 161.4 261.9 160.5 263.6 160.5C265.9 160.6 265.3 162 266 163.5C266.5 164.6 267.5 165.3 268.4 166.1C270.3 167.8 273 166.1 274.8 164.9C277 163.5 279.9 161.1 282.7 161.7C284.8 162.2 286.7 163.2 288.7 161.8C290 160.9 290.9 159.2 290 157.6C288.3 154.9 284.4 154.8 281.7 154.8C278.5 154.9 275.3 154.7 272.1 155.2C270.1 155.5 268.2 156 266.2 155.6C264.1 155.1 262.4 154 260.4 153.1C257.1 151.7 254.3 153 251.2 154.2C247.4 155.7 243.8 158.2 242.1 162C240.7 165.2 241.5 168.6 241.1 172C241 173.5 240.7 175.1 240.3 176.6C239.5 178.8 237.9 180.6 236.5 182.5C233.9 185.9 232.6 189.4 233.3 193.5C233.6 195.3 233.5 196.3 232.7 197.9C232.1 199.1 230.8 200.7 230.4 202.1C230 203.5 231 203.7 232.1 204.6C233.3 205.6 234.6 207.3 234.9 208.9C235.7 212.8 233.8 216.5 230.7 218.8C228.7 220.4 225.9 220.9 224.5 223.1C223.7 224.3 223 225.5 222.3 226.7C221.1 228.7 219.5 229.7 217.5 230.7C215.3 231.7 212.8 231.9 211.1 233.6C210 234.7 209.7 235.6 209.1 236.9C208.1 239 207 240.8 205.9 242.8C204.9 244.6 203.9 245.9 202 247C199.7 248.3 197.5 249.4 195.3 250.8C193 252.3 191.5 254.5 189.6 256.4C187.3 258.6 184.8 259.4 181.8 260C177.5 261 173 262.2 168.6 262.9C164.7 263.4 161.3 263.2 157.6 261.9C154.6 260.9 151.7 259.7 148.9 258.3C157.5 178.8 224.8 117 306.5 117C394 117 465 187.9 465 275.5Z" fill="url(#paint1_linear_528_306640)"/>
</g>
<defs>
<radialGradient id="paint0_radial_528_306640" cx="0" cy="0" r="1" gradientUnits="userSpaceOnUse" gradientTransform="translate(208.334 201.334) scale(254.57 254.57)">
<stop stop-color="#FEE0FF"/>
<stop offset="0.994" stop-color="#F7FFFF"/>
</radialGradient>
<linearGradient id="paint1_linear_528_306640" x1="148.01" y1="433.923" x2="148.01" y2="116.972" gradientUnits="userSpaceOnUse">
<stop stop-color="#E8DDFF"/>
<stop offset="1" stop-color="#AA8AD8"/>
</linearGradient>
</defs>
</svg>
