<svg version="1.2" xmlns="http://www.w3.org/2000/svg" viewBox="0 0 1592 708" width="1592" height="708">
	<title>1285-ai</title>
	<defs>
		<clipPath clipPathUnits="userSpaceOnUse" id="cp1">
			<path d="m1593.46 708h-1593.46v-708.2h1593.46z"/>
		</clipPath>
		<linearGradient id="g1" x2="1" gradientUnits="userSpaceOnUse" gradientTransform="matrix(0,-189.332,815.457,0,1163.753,708)">
			<stop offset="0" stop-color="#977cff"/>
			<stop offset="1" stop-color="#4513b6"/>
		</linearGradient>
		<linearGradient id="g2" x2="1" gradientUnits="userSpaceOnUse" gradientTransform="matrix(303.442,0,0,34.679,778.004,543.963)">
			<stop offset="0" stop-color="#757feb"/>
			<stop offset="1" stop-color="#a25edc"/>
		</linearGradient>
		<radialGradient id="g3" cx="0" cy="0" r="1" gradientUnits="userSpaceOnUse" gradientTransform="matrix(231.932,0,0,231.932,1269.954,555.418)">
			<stop offset="0" stop-color="#b27fed"/>
			<stop offset="1" stop-color="#9d70dd"/>
		</radialGradient>
		<linearGradient id="g4" x2="1" gradientUnits="userSpaceOnUse" gradientTransform="matrix(0,-145.386,815.457,0,1172.772,712.418)">
			<stop offset="0" stop-color="#977cff"/>
			<stop offset="1" stop-color="#4513b6"/>
		</linearGradient>
		<linearGradient id="g5" x2="1" gradientUnits="userSpaceOnUse" gradientTransform="matrix(0,-68.044,118.148,0,966.324,683.623)">
			<stop offset="0" stop-color="#b58bff"/>
			<stop offset="1" stop-color="#653fc8"/>
		</linearGradient>
		<linearGradient id="g6" x2="1" gradientUnits="userSpaceOnUse" gradientTransform="matrix(118.148,0,0,23.045,926.844,602.444)">
			<stop offset="0" stop-color="#a97feb"/>
			<stop offset="1" stop-color="#9c70fe"/>
		</linearGradient>
		<linearGradient id="g7" x2="1" gradientUnits="userSpaceOnUse" gradientTransform="matrix(23.292,0,0,8.367,798.161,608.758)">
			<stop offset="0" stop-color="#a97feb"/>
			<stop offset="1" stop-color="#9c70fe"/>
		</linearGradient>
		<linearGradient id="g8" x2="1" gradientUnits="userSpaceOnUse" gradientTransform="matrix(302.484,0,0,14.451,1139.582,539.647)">
			<stop offset="0" stop-color="#4513b6"/>
			<stop offset="1" stop-color="#8363ff"/>
		</linearGradient>
		<linearGradient id="g9" x2="1" gradientUnits="userSpaceOnUse" gradientTransform="matrix(515.225,0,0,51.738,926.842,542.219)">
			<stop offset="0" stop-color="#ab89ee"/>
			<stop offset="1" stop-color="#9d70ec"/>
		</linearGradient>
		<linearGradient id="g10" x2="1" gradientUnits="userSpaceOnUse" gradientTransform="matrix(116.215,0,0,13.053,1477.645,550.723)">
			<stop offset=".011" stop-color="#9779ff"/>
			<stop offset="1" stop-color="#653fc8"/>
		</linearGradient>
		<linearGradient id="g11" x2="1" gradientUnits="userSpaceOnUse" gradientTransform="matrix(255.473,0,0,20.961,1337.988,597.32)">
			<stop offset="0" stop-color="#ab89ee"/>
			<stop offset="1" stop-color="#9d70ec"/>
		</linearGradient>
		<linearGradient id="g12" x2="1" gradientUnits="userSpaceOnUse" gradientTransform="matrix(0,-8.699,91.297,0,927.476,575.731)">
			<stop offset="0" stop-color="#4513b6"/>
			<stop offset="1" stop-color="#7957ff"/>
		</linearGradient>
		<linearGradient id="g13" x2="1" gradientUnits="userSpaceOnUse" gradientTransform="matrix(0,-36.934,111.942,0,1265.636,615.578)">
			<stop offset="0" stop-color="#562f86"/>
			<stop offset="1" stop-color="#4513b6"/>
		</linearGradient>
	</defs>
	<style>
		.s0 { opacity: 1;fill: url(#g1) } 
		.s1 { opacity: 1;fill: url(#g2) } 
		.s2 { opacity: 1;fill: url(#g3) } 
		.s3 { opacity: 1;fill: url(#g4) } 
		.s4 { fill: url(#g5) } 
		.s5 { fill: url(#g6) } 
		.s6 { fill: url(#g7) } 
		.s7 { opacity: 1;fill: url(#g8) } 
		.s8 { opacity: 1;fill: url(#g9) } 
		.s9 { fill: #bb9aff } 
		.s10 { opacity: 1;fill: url(#g10) } 
		.s11 { opacity: 1;fill: url(#g11) } 
		.s12 { fill: url(#g12) } 
		.s13 { opacity: 1;fill: url(#g13) } 
		.s14 { opacity: 1;fill: #bb9aff } 
	</style>
	<g id="_Artboards_">
	</g>
	<g id=" 1">
	</g>
	<g id="Layer 1">
	</g>
	<g id="space background">
		<g id="&lt;Clip Group&gt;" clip-path="url(#cp1)">
			<g id="&lt;Group&gt;">
				<path id="&lt;Path&gt;" class="s0" d="m1030.3 518.7c0 0 4.9 10 8.8 15.8 4 5.8 7.4 9.5 7.4 9.5l-3.7 5.6-135.4 6.1-129.4 11.3c0 0 7.5 10.7 10.6 13.8 3.1 3.1 7.3 5.8 7.3 5.8 0 0 2.8 13.1 3.7 18.6 1 5.4-1.5 10.4-1.5 10.4l5.7 18.5 184 38.6h117.8l239 22.8 248.9 12.5v-129.4l-225.7-32.5z"/>
				<path id="&lt;Path&gt;" class="s1" d="m1081.4 550.4c0 0-11.2-5.4-18.5-6.2-7.2-0.9-191.7 5.8-202.7 6.2l-24.5-1.9c0 0-5-5.4-9.9-4.4-4.9 0.9-9 3.1-9 3.1 0 0-1.8 5.6-3.4 7.1-1.5 1.4-8.2 2.6-8.2 2.6l-5.1 4-7.9-5.2-8.7 5.2-5.5 6.1c0 0 13.3 1.8 17.4 2.9 4 1.2 66.9-2.6 85.4 0 18.5 2.6 39.4 2.6 40.8 4.1 1.5 1.4 20.7 5.3 27.7 4.5 7.1-0.8 78.4-11.5 78.4-11.5l41-8.5z"/>
				<path id="&lt;Path&gt;" class="s2" d="m1593.9 503.8l-326-0.1c0 0-8.2 3.6-14 4.1-5.8 0.4-73.9 1.3-83.5 1.5-9.6 0.1-35.5-1.3-51.9 0-16.4 1.3-37.3 2.1-43.8 3.2-6.5 1.1-25.1 3.1-31.9 4.2-6.7 1.2-14 0-12.5 2 1.6 1.9 17 2.3 22.4 5 5.4 2.7 29.8 4.6 35.6 6.2 5.7 1.5 37 5.8 44.2 8.1 7.1 2.3 12.9 4.2 12.9 4.2 0 0-61.6 7-69.2 9.3-7.7 2.3-14.6 4.2-14.6 4.2 0 0-92.6 10.8-101.7 14.3-9.1 3.5-14.8 5-13.7 7.4 1.1 2.3 34.4 4.6 42.1 5.4 7.7 0.7 41.6-8.1 47.4-5.1 5.8 3.1 12.1 5.1 15.3 7.8 3.3 2.7 13.3 0.3 22.2 2.7 8.9 2.3 151.3 4.2 159 5.8 7.8 1.5 14.7 8.8 23.2 10.8 8.5 1.9 338.1 2.3 338.1 2.3z"/>
				<path id="&lt;Path&gt;" class="s3" d="m1550.5 607.5l7.2 95.3-84 2-111.5-9.1-13.6-46.1-10.6-42.1-1.3 45.5 1.3 30.2-18.9 19.6-46.6-9.9-17.1-88.1-23.2-10.8-8.3 49-9.7 4.2 3.5 24.5-54.1 1.5-79.1 2.7-11.3-87.7-6.9-1.1 8.1 49.1-20.1-49.6-1.4 66.7-7.9-35.8-16.6-0.4 1.4-40-41.5 5.7 2.9 28.4-31.5 4.4-17.8-4.4-22.5-37.8-37.2-1.9 11.1 22.8 2.6 12.8 6.7 32.4-30.5-6.5-19.4-45.4-1.7-10.4-6.1-8.1-49.5 0.8-17.4-2.9c0 0 8.3 11.7 10.6 13.8 2.4 2.1 7.3 5.8 7.3 5.8l16.3 1.2 11.3 7.2 8.4 12.1-17.3 4.1-6.6 4.8-9.2 1.1 4.3 13.2 27.8 12.8 210.3 46.3 248.6 21 267.9 2 35.8-4.4v-100.9z"/>
				<path id="&lt;Path&gt;" class="s4" d="m926.8 615.6l9.4 54.2c0 0 29.3 11.1 40.9 13.4 11.6 2.3 25.1-5.4 25.1-5.4l21.4-1.9 14.8-10 6.6-48.4-36.6-0.4z"/>
				<path id="&lt;Path&gt;" class="s5" d="m926.8 615.6c0 0 35.5-13.5 40.4-13.1 4.8 0.3 21-0.1 21-0.1 0 0 13.2 5.8 21.3 6.6 8.1 0.8 35.5 8.5 35.5 8.5 0 0-18.9 3.1-24.9 3.1l2.5 3.9c0 0-13.1 2.3-33.2 0 0 0-16.6-3.5-62.6-8.9z"/>
				<path id="&lt;Path&gt;" class="s6" d="m799.6 610.4l13.8-1.6 8.1 0.8-6.9 1.6-6.6 4.8-9.2 1.1c0 0-1.9-3.3 0.8-6.7z"/>
				<path id="&lt;Path&gt;" class="s7" d="m1139.6 540.3l82-0.7 48.4 0.7 57.5 5.4 114.6 8.4h-142.5l-60.8-2.1-86.3-8.3z"/>
				<path id="&lt;Path&gt;" class="s8" d="m939.3 580l49 2.8c0 0 16.4-0.4 41.5-5.7l24.5 9.5 18.9 1.6 3.7 4.3 155.3 1.5 59.5-8.5 29.5-5.5 120.9-25.9-138.6-4.2-23.8 4.2-48.1-2.8-86.2-9.1c0 0-58.7 6.8-69.2 9.3-10.5 2.5-81.5 12.3-81.5 12.3l-67.9 11.9c0 0-0.4 2.7 12.5 4.3z"/>
				<path id="&lt;Path&gt;" class="s9" d="m816.8 547.2l4.7 3.5 7.5-1.7 3.5-1.8-2-3.5c0 0-9.6 0.3-13.7 3.5z"/>
				<path id="&lt;Path&gt;" class="s9" d="m803.4 558.3h6.4l4.6-3.7c0 0-4.8-1.4-11 3.7z"/>
				<path id="&lt;Path&gt;" class="s9" d="m792.2 555.7l-7.3 5.6 1.7 2.5h8l5.5-2.9z"/>
				<path id="&lt;Path&gt;" class="s10" d="m1477.6 554.4l115.9-3.7 0.4 13.1z"/>
				<path id="&lt;Path&gt;" class="s11" d="m1338 607.5l40.2 3.7h19.6l41.1-1.8 20.4 1 27.7 0.8 11.7 7.1 25.9-1.2 22.1-2.3 7.4-7.3 24.2-1.3 15.2 0.9-102-9.8-53.8 5.1h-51.4z"/>
				<path id="&lt;Path&gt;" class="s12" d="m882.2 571.5l14.2-1.4 10-2 16.1 1.7 23.5 1.7 27.5-4.5-46.7 8.7-6.7-1.2-2.9 1.2z"/>
				<path id="&lt;Path&gt;" class="s13" d="m1232.2 594l26.7-3.8 32.8-4.7 36-6.9-46 5.3-65.9 9.2 12.2 22.5z"/>
				<path id="&lt;Path&gt;" class="s14" d="m1267.9 503.8l51.7 5.3 4.3 5.4-21.4-1.7h-38.2l-28.5-3.7z"/>
			</g>
		</g>
	</g>
</svg>