<svg width="1592" height="708" viewBox="0 0 1592 708" fill="none" xmlns="http://www.w3.org/2000/svg">
<g clip-path="url(#clip0_540_306793)">
<path d="M1185.5 461.607C1180.64 504.694 1211.76 543.588 1255.06 548.484C1298.36 553.411 1337.41 522.473 1342.3 479.387C1347.17 436.331 1316.05 397.436 1272.75 392.51C1229.44 387.613 1190.4 418.551 1185.5 461.607Z" fill="url(#paint0_linear_540_306793)"/>
<path d="M1188.1 461.913C1183.39 503.561 1213.5 541.14 1255.36 545.883C1297.23 550.626 1334.96 520.729 1339.7 479.111C1344.41 437.463 1314.3 399.854 1272.44 395.11C1230.61 390.367 1192.85 420.265 1188.1 461.913Z" fill="url(#paint1_linear_540_306793)"/>
<path d="M1334.19 475.776C1334.17 475.776 1334.15 475.766 1334.13 475.745C1333.55 475.715 1333.12 475.225 1333.15 474.674C1333.34 471.767 1333.34 468.829 1333.12 465.953C1333.09 465.371 1333.52 464.882 1334.1 464.851C1334.65 464.821 1335.14 465.249 1335.2 465.8C1335.39 468.768 1335.39 471.798 1335.2 474.797C1335.17 475.347 1334.71 475.776 1334.19 475.776Z" fill="white"/>
<path d="M1329.94 447.316C1329.54 447.316 1329.14 447.041 1328.99 446.643C1319.81 422.04 1297.87 404.903 1271.67 401.934C1267.51 401.475 1263.26 401.353 1259.1 401.628C1258.55 401.659 1258.06 401.231 1258.03 400.68C1257.96 400.098 1258.39 399.609 1258.97 399.578C1263.26 399.303 1267.6 399.395 1271.92 399.884C1298.88 402.944 1321.46 420.571 1330.92 445.909C1331.1 446.459 1330.83 447.041 1330.31 447.224C1330.18 447.286 1330.06 447.316 1329.94 447.316Z" fill="white"/>
<g clip-path="url(#clip1_540_306793)">
<mask id="mask0_540_306793" style="mask-type:luminance" maskUnits="userSpaceOnUse" x="1204" y="439" width="121" height="64">
<path d="M1204.54 471C1204.54 488.275 1231.3 502.28 1264.31 502.28C1297.32 502.28 1324.08 488.275 1324.08 471C1324.08 453.726 1297.32 439.721 1264.31 439.721C1231.3 439.721 1204.54 453.726 1204.54 471Z" fill="white"/>
</mask>
<g mask="url(#mask0_540_306793)">
<path d="M1204.54 471C1204.54 488.275 1231.3 502.28 1264.31 502.28C1297.32 502.28 1324.08 488.275 1324.08 471C1324.08 453.726 1297.32 439.721 1264.31 439.721C1231.3 439.721 1204.54 453.726 1204.54 471Z" fill="white"/>
</g>
<mask id="mask1_540_306793" style="mask-type:luminance" maskUnits="userSpaceOnUse" x="1202" y="436" width="125" height="70">
<path d="M1202.04 436.159H1326.57V505.841H1202.04V436.159Z" fill="white"/>
</mask>
<g mask="url(#mask1_540_306793)">
<path d="M1264.31 499.957C1296.03 499.957 1321.74 486.992 1321.74 471C1321.74 455.008 1296.03 442.043 1264.31 442.043C1232.59 442.043 1206.87 455.008 1206.87 471C1206.87 486.992 1232.59 499.957 1264.31 499.957Z" fill="white"/>
</g>
<mask id="mask2_540_306793" style="mask-type:luminance" maskUnits="userSpaceOnUse" x="1202" y="436" width="125" height="70">
<path d="M1202.04 436.159H1326.57V505.841H1202.04V436.159Z" fill="white"/>
</mask>
<g mask="url(#mask2_540_306793)">
<path d="M1237.01 474.59C1239.62 474.59 1241.56 474.112 1242.8 473.168C1244.02 472.235 1244.86 470.617 1245.3 468.361C1245.71 466.252 1245.55 464.779 1244.83 463.985C1244.1 463.173 1242.5 462.761 1240.1 462.761H1235.93L1233.62 474.59H1237.01ZM1223.38 489.161C1223.18 489.161 1223 489.075 1222.88 488.926C1222.75 488.778 1222.7 488.582 1222.74 488.393L1228.86 457.046C1228.92 456.743 1229.19 456.524 1229.5 456.524H1242.7C1246.85 456.524 1249.93 457.645 1251.88 459.855C1253.83 462.077 1254.43 465.183 1253.67 469.086C1253.36 470.676 1252.82 472.153 1252.08 473.475C1251.34 474.799 1250.35 476.024 1249.16 477.117C1247.73 478.448 1246.11 479.414 1244.35 479.982C1242.62 480.543 1240.4 480.827 1237.75 480.827H1232.4L1230.88 488.639C1230.82 488.942 1230.55 489.161 1230.24 489.161H1223.38Z" fill="url(#paint2_linear_540_306793)"/>
<path d="M1236.47 463.406H1240.1C1243 463.406 1244.01 464.04 1244.35 464.417C1244.92 465.044 1245.03 466.365 1244.66 468.238C1244.25 470.335 1243.49 471.822 1242.4 472.657C1241.29 473.512 1239.47 473.945 1237.01 473.945H1234.41L1236.47 463.406ZM1242.7 455.879H1229.5C1228.88 455.879 1228.35 456.317 1228.23 456.923L1222.1 488.27C1222.03 488.648 1222.13 489.039 1222.38 489.337C1222.62 489.634 1222.99 489.806 1223.38 489.806H1230.24C1230.86 489.806 1231.39 489.368 1231.51 488.762L1232.94 481.472H1237.75C1240.47 481.472 1242.76 481.177 1244.55 480.595C1246.4 479.999 1248.1 478.987 1249.6 477.588C1250.84 476.45 1251.87 475.172 1252.65 473.79C1253.42 472.408 1253.98 470.867 1254.3 469.209C1255.11 465.1 1254.45 461.81 1252.36 459.431C1250.29 457.074 1247.04 455.879 1242.7 455.879ZM1232.83 475.235H1237.01C1239.78 475.235 1241.84 474.717 1243.19 473.679C1244.55 472.642 1245.46 470.91 1245.94 468.484C1246.39 466.154 1246.18 464.51 1245.31 463.553C1244.45 462.595 1242.71 462.116 1240.1 462.116H1235.4L1232.83 475.235ZM1242.7 457.169C1246.67 457.169 1249.57 458.206 1251.39 460.28C1253.21 462.353 1253.76 465.247 1253.03 468.963C1252.73 470.494 1252.22 471.893 1251.51 473.161C1250.8 474.43 1249.87 475.59 1248.72 476.642C1247.35 477.918 1245.83 478.827 1244.15 479.368C1242.48 479.911 1240.34 480.182 1237.75 480.182H1231.87L1230.24 488.516H1223.38L1229.5 457.169H1242.7Z" fill="white"/>
<path d="M1269.4 480.827C1269.21 480.827 1269.03 480.741 1268.9 480.592C1268.78 480.444 1268.73 480.248 1268.77 480.059L1271.48 466.189C1271.73 464.87 1271.67 463.924 1271.3 463.524C1271.07 463.279 1270.38 462.869 1268.36 462.869H1263.45L1260.04 480.305C1259.98 480.608 1259.72 480.827 1259.41 480.827H1252.6C1252.4 480.827 1252.22 480.741 1252.1 480.592C1251.97 480.444 1251.92 480.248 1251.96 480.059L1258.08 448.712C1258.14 448.409 1258.41 448.19 1258.72 448.19H1265.53C1265.72 448.19 1265.91 448.276 1266.03 448.425C1266.15 448.574 1266.2 448.769 1266.17 448.959L1264.69 456.524H1269.97C1273.99 456.524 1276.72 457.23 1278.31 458.681C1279.93 460.162 1280.43 462.529 1279.81 465.718L1276.96 480.305C1276.9 480.608 1276.63 480.827 1276.32 480.827H1269.4Z" fill="url(#paint3_linear_540_306793)"/>
<path d="M1265.53 447.545H1258.72C1258.1 447.545 1257.56 447.983 1257.45 448.589L1251.32 479.936C1251.25 480.314 1251.35 480.705 1251.59 481.003C1251.84 481.3 1252.21 481.472 1252.6 481.472H1259.41C1260.03 481.472 1260.56 481.034 1260.68 480.428L1263.98 463.514H1268.36C1270.38 463.514 1270.8 463.944 1270.82 463.963C1270.94 464.094 1271.11 464.703 1270.84 466.066L1268.13 479.936C1268.06 480.314 1268.16 480.705 1268.4 481.003C1268.65 481.3 1269.02 481.472 1269.4 481.472H1276.32C1276.94 481.472 1277.48 481.034 1277.59 480.428L1280.44 465.841C1281.11 462.417 1280.54 459.848 1278.74 458.206C1277.03 456.64 1274.16 455.879 1269.97 455.879H1265.47L1266.8 449.082C1266.88 448.703 1266.78 448.312 1266.53 448.015C1266.28 447.717 1265.92 447.545 1265.53 447.545ZM1265.53 448.835L1263.9 457.169H1269.97C1273.78 457.169 1276.42 457.832 1277.87 459.156C1279.32 460.481 1279.75 462.628 1279.17 465.595L1276.32 480.182H1269.4L1272.11 466.312C1272.42 464.735 1272.31 463.658 1271.77 463.085C1271.24 462.511 1270.1 462.223 1268.36 462.223H1262.91L1259.41 480.182H1252.6L1258.72 448.835H1265.53Z" fill="white"/>
<path d="M1290.58 474.59C1293.19 474.59 1295.14 474.112 1296.37 473.168C1297.59 472.235 1298.43 470.617 1298.87 468.361C1299.28 466.252 1299.13 464.779 1298.41 463.985C1297.67 463.173 1296.08 462.761 1293.67 462.761H1289.51L1287.19 474.59H1290.58ZM1276.95 489.161C1276.76 489.161 1276.57 489.075 1276.45 488.926C1276.33 488.778 1276.28 488.582 1276.31 488.393L1282.44 457.046C1282.5 456.743 1282.76 456.524 1283.07 456.524H1296.27C1300.42 456.524 1303.51 457.645 1305.45 459.855C1307.4 462.077 1308 465.183 1307.24 469.086C1306.93 470.676 1306.4 472.153 1305.65 473.475C1304.91 474.799 1303.93 476.024 1302.73 477.117C1301.3 478.448 1299.68 479.414 1297.92 479.982C1296.19 480.543 1293.97 480.827 1291.32 480.827H1285.98L1284.45 488.639C1284.39 488.942 1284.12 489.161 1283.81 489.161H1276.95Z" fill="url(#paint4_linear_540_306793)"/>
<path d="M1290.04 463.406H1293.67C1296.57 463.406 1297.58 464.04 1297.93 464.417C1298.49 465.044 1298.6 466.365 1298.24 468.238C1297.83 470.335 1297.06 471.822 1295.97 472.657C1294.86 473.512 1293.04 473.945 1290.58 473.945H1287.98L1290.04 463.406ZM1296.27 455.879H1283.07C1282.45 455.879 1281.92 456.317 1281.8 456.923L1275.68 488.27C1275.6 488.648 1275.7 489.039 1275.95 489.337C1276.2 489.634 1276.56 489.806 1276.95 489.806H1283.81C1284.43 489.806 1284.97 489.368 1285.09 488.762L1286.51 481.472H1291.32C1294.04 481.472 1296.33 481.177 1298.13 480.595C1299.97 479.999 1301.67 478.986 1303.18 477.587C1304.42 476.449 1305.44 475.172 1306.22 473.79C1306.99 472.408 1307.55 470.867 1307.88 469.209C1308.68 465.1 1308.03 461.81 1305.94 459.43C1303.87 457.074 1300.62 455.879 1296.27 455.879ZM1286.41 475.235H1290.58C1293.35 475.235 1295.41 474.717 1296.77 473.679C1298.12 472.642 1299.03 470.91 1299.51 468.484C1299.96 466.154 1299.76 464.51 1298.89 463.553C1298.02 462.595 1296.28 462.116 1293.67 462.116H1288.97L1286.41 475.235ZM1296.27 457.169C1300.24 457.169 1303.14 458.206 1304.96 460.28C1306.78 462.353 1307.33 465.247 1306.6 468.963C1306.3 470.494 1305.8 471.893 1305.09 473.161C1304.37 474.43 1303.44 475.59 1302.29 476.642C1300.92 477.918 1299.4 478.827 1297.72 479.368C1296.05 479.911 1293.92 480.182 1291.32 480.182H1285.44L1283.81 488.516H1276.95L1283.07 457.169H1296.27Z" fill="white"/>
</g>
</g>
</g>
<defs>
<linearGradient id="paint0_linear_540_306793" x1="1370.73" y1="367.411" x2="1331.43" y2="615.79" gradientUnits="userSpaceOnUse">
<stop stop-color="#FDF53F"/>
<stop offset="1" stop-color="#D93C65"/>
</linearGradient>
<linearGradient id="paint1_linear_540_306793" x1="1367.89" y1="356.434" x2="1311.63" y2="731.494" gradientUnits="userSpaceOnUse">
<stop stop-color="#FDF53F"/>
<stop offset="1" stop-color="#D93C65"/>
</linearGradient>
<linearGradient id="paint2_linear_540_306793" x1="1238.36" y1="489.161" x2="1238.36" y2="456.524" gradientUnits="userSpaceOnUse">
<stop stop-color="#EEA64F"/>
<stop offset="1" stop-color="#F3C349"/>
</linearGradient>
<linearGradient id="paint3_linear_540_306793" x1="1266.01" y1="480.827" x2="1266.01" y2="448.19" gradientUnits="userSpaceOnUse">
<stop stop-color="#EEA64F"/>
<stop offset="1" stop-color="#F4C848"/>
</linearGradient>
<linearGradient id="paint4_linear_540_306793" x1="1291.93" y1="489.161" x2="1291.93" y2="456.524" gradientUnits="userSpaceOnUse">
<stop stop-color="#EEA74F"/>
<stop offset="1" stop-color="#F4C848"/>
</linearGradient>
<clipPath id="clip0_540_306793">
<rect width="1592" height="708" fill="white"/>
</clipPath>
<clipPath id="clip1_540_306793">
<rect width="123" height="66" fill="white" transform="translate(1202.81 438)"/>
</clipPath>
</defs>
</svg>
