<svg width="146" height="156" viewBox="0 0 146 156" fill="none" xmlns="http://www.w3.org/2000/svg">
<g clip-path="url(#clip0_523_15)">
<circle cx="73" cy="82" r="63" stroke="white" stroke-width="10"/>
<path d="M138.5 81.5C138.5 117.395 109.178 146.5 73 146.5C36.8218 146.5 7.5 117.395 7.5 81.5C7.5 45.6051 36.8218 16.5 73 16.5C109.178 16.5 138.5 45.6051 138.5 81.5Z" fill="white" stroke="#D8BFBB"/>
<path d="M43.5 130C43.5 130 39 107 24 94.5C30 85.5 36.5 86 36.5 86C42.5 90 46 98 49.5 107C57 92 59.5 86.5 69 76C90 50.5 98 47.5 107.5 40H111.5V43L96.5 57V96.9184L91.5 107L84 120.5L72 130C71 124 68.5 114.5 62 107C55.5 122 53.5 120.5 43.5 130Z" fill="#261471"/>
<path d="M84 120.5V96V73.5L71.5 92L69 76C90 50.5 97.5 47.5 107 40H111.5V43L96.5 57V97L91.5 107L84 120.5Z" fill="#E11D18"/>
<path d="M84 96.5C80.8758 100.796 78 107 76.5 108L71.5 92L84 73.5V96.5Z" fill="white"/>
</g>
<defs>
<clipPath id="clip0_523_15">
<rect width="146" height="156" fill="white"/>
</clipPath>
</defs>
</svg>
