<svg width="1592" height="708" viewBox="0 0 1592 708" fill="none" xmlns="http://www.w3.org/2000/svg">
<g clip-path="url(#clip0_540_306648)">
<path d="M326.397 386.546C322.56 420.283 346.97 450.76 380.899 454.596C414.804 458.456 445.424 434.215 449.236 400.454C453.073 366.717 428.663 336.24 394.734 332.404C360.805 328.544 330.209 352.785 326.397 386.546Z" fill="url(#paint0_linear_540_306648)"/>
<path d="M328.435 386.762C324.742 419.396 348.313 448.865 381.115 452.582C413.917 456.298 443.506 432.848 447.198 400.238C450.891 367.604 427.297 338.135 394.519 334.418C361.717 330.701 332.128 354.152 328.435 386.762Z" fill="url(#paint1_linear_540_306648)"/>
<path d="M442.882 397.624C442.866 397.624 442.85 397.624 442.834 397.624C442.402 397.6 442.043 397.217 442.091 396.761C442.211 394.483 442.211 392.181 442.067 389.927C442.019 389.472 442.379 389.088 442.81 389.064C443.242 389.04 443.649 389.376 443.673 389.808C443.817 392.157 443.841 394.507 443.697 396.857C443.673 397.289 443.314 397.624 442.882 397.624Z" fill="white"/>
<path d="M439.573 375.325C439.238 375.325 438.926 375.109 438.806 374.797C431.637 355.519 414.42 342.091 393.895 339.765C390.634 339.406 387.325 339.31 384.064 339.525C383.609 339.549 383.225 339.238 383.201 338.782C383.177 338.351 383.513 337.943 383.944 337.919C387.301 337.703 390.73 337.775 394.087 338.159C415.212 340.557 432.931 354.368 440.317 374.222C440.484 374.653 440.269 375.109 439.837 375.277C439.757 375.309 439.669 375.325 439.573 375.325Z" fill="white"/>
<path d="M391.449 393.908C391.449 396.785 389.147 399.063 386.342 399.015C383.512 398.967 381.235 396.593 381.235 393.716C381.211 390.863 383.489 388.561 386.318 388.609C389.147 388.657 391.449 391.006 391.449 393.908Z" fill="white"/>
<path fill-rule="evenodd" clip-rule="evenodd" d="M373.466 425.271C370.636 425.175 368.119 424.312 366.057 422.729C357.161 415.943 358.959 398.128 370.181 381.918C378.525 369.857 389.963 361.993 399.314 361.993C402.239 361.993 404.829 362.784 406.987 364.319C416.386 370.984 414.516 389.352 402.791 405.92C394.207 418.029 382.697 425.582 373.466 425.271ZM399.314 365.278C391.114 365.278 380.443 372.735 372.746 383.813C362.843 398.08 360.638 414.648 367.879 420.139C369.413 421.314 371.284 421.938 373.466 422.01C381.546 422.297 392.265 415.056 400.105 403.954C410.392 389.424 412.694 372.399 405.093 367.004C403.51 365.853 401.568 365.278 399.314 365.278Z" fill="white"/>
<path fill-rule="evenodd" clip-rule="evenodd" d="M399.482 426.182C390.083 425.846 378.597 417.55 370.205 405.153C358.959 388.536 357.137 370.697 366.009 364.271C368.071 362.76 370.565 361.993 373.394 361.993C382.578 361.993 394.087 369.929 402.719 382.278C414.564 399.255 416.531 417.742 407.155 424.12C404.997 425.606 402.407 426.278 399.482 426.182ZM373.394 365.23C371.236 365.23 369.342 365.781 367.831 366.908C360.614 372.111 362.844 388.704 372.771 403.331C380.492 414.72 391.234 422.609 399.458 422.873C401.712 422.969 403.678 422.441 405.261 421.362C412.838 416.183 410.44 399.039 400.058 384.148C392.169 372.807 381.451 365.254 373.394 365.23Z" fill="white"/>
<path fill-rule="evenodd" clip-rule="evenodd" d="M387.014 412.563L386.078 413.018C376.775 412.611 368.143 410.573 361.717 406.808C355.003 402.9 351.382 397.936 351.454 392.565C351.598 382.039 366.464 373.958 385.623 374.078L386.582 374.126C399.77 374.39 411.927 378.61 418.233 385.156C421.11 388.153 422.621 391.054 422.573 394.459C422.453 405.441 406.676 414.289 387.014 412.563ZM385.623 377.387C368.479 377.243 354.667 384.149 354.547 392.805C354.475 396.905 357.545 400.981 363.203 404.242C369.198 407.743 377.326 409.877 386.102 410.237L387.014 410.261C404.542 410.74 419.144 403.811 419.264 394.867C419.288 392.325 418.137 389.832 415.859 387.458C410.176 381.535 398.907 377.699 386.534 377.411L385.623 377.387Z" fill="white"/>
</g>
<defs>
<linearGradient id="paint0_linear_540_306648" x1="492.747" y1="249.597" x2="433.98" y2="525.543" gradientUnits="userSpaceOnUse">
<stop stop-color="#FDF53F"/>
<stop offset="1" stop-color="#D93C65"/>
</linearGradient>
<linearGradient id="paint1_linear_540_306648" x1="465.797" y1="327.438" x2="421.714" y2="621.321" gradientUnits="userSpaceOnUse">
<stop stop-color="#FDF53F"/>
<stop offset="1" stop-color="#D93C65"/>
</linearGradient>
<clipPath id="clip0_540_306648">
<rect width="1592" height="708" fill="white"/>
</clipPath>
</defs>
</svg>
