<svg width="1592" height="708" viewBox="0 0 1592 708" fill="none" xmlns="http://www.w3.org/2000/svg">
<g clip-path="url(#clip0_528_305870)">
<mask id="mask0_528_305870" style="mask-type:luminance" maskUnits="userSpaceOnUse" x="0" y="-1" width="1594" height="709">
<path d="M1593.46 708H0V-0.199951H1593.46V708Z" fill="white"/>
</mask>
<g mask="url(#mask0_528_305870)">
<path d="M1507.2 187.3C1507.6 188.367 1508 189.4 1508.4 190.4C1512.2 201 1514.3 211.7 1514.8 222.4C1516.3 252.5 1505.4 281.8 1485.1 303.6C1474.2 315.4 1460.5 325 1444.4 331.3C1427.5 337.9 1409.8 340.1 1392.9 338.4C1366.7 335.8 1342 324 1323.7 304.9C1322.17 303.233 1320.67 301.533 1319.2 299.8C1311.4 290.8 1305.1 280.3 1300.5 268.5C1279.4 214.8 1302.9 154.6 1353.4 129C1355.87 127.733 1358.4 126.533 1361 125.4C1361 125.4 1361.03 125.4 1361.1 125.4C1361.77 125.133 1362.47 124.833 1363.2 124.5C1371 121.5 1378.8 119.4 1386.7 118.2C1391.7 117.4 1396.63 116.933 1401.5 116.8C1426 116.4 1449.9 124 1469.4 138.3C1485.9 150.3 1499.2 167 1507.2 187.3Z" fill="url(#paint0_radial_528_305870)"/>
<path style="mix-blend-mode:multiply" opacity="0.3" fill-rule="evenodd" clip-rule="evenodd" d="M1507.2 187.3C1507.6 188.367 1508 189.4 1508.4 190.4C1507 190.4 1505.2 189.5 1504.5 189C1502.2 187.5 1500.4 186.1 1497.9 185.1C1495.6 184.1 1492.6 183.5 1490.1 183.5C1488.5 183.6 1485 183.4 1483.6 184.7C1483 185.2 1483.2 185.8 1482.8 186.5C1482.4 187.2 1481.6 187.3 1481.2 187.9C1480.3 189.1 1479.9 192.3 1480 193.8C1480.1 195.5 1480.7 197.1 1480.7 198.8C1480.7 200.1 1480.8 201.1 1481 202.4C1481.2 203.467 1481.4 204.533 1481.6 205.6C1481.9 207 1481.4 207.8 1481.2 209.3C1480.5 212.4 1479 215.5 1477.5 218.3C1476.5 220.3 1475.6 222.4 1476.1 224.6C1476.2 225.4 1476.5 225.8 1476.5 226.7C1476.4 227.5 1476.1 228.4 1475.9 229.2C1475.6 230.7 1474.6 233.4 1477 233.7C1477.7 233.8 1479 233.1 1479.7 233C1480.6 232.9 1481.4 233 1482.2 232.5C1483.9 231.5 1485.1 230.6 1487 229.8C1488 229.4 1488.9 229.2 1490 229C1491.4 228.8 1492 227.5 1493.2 227.3C1495.5 226.7 1495.2 230 1496.5 231.1C1497.9 232.2 1499.6 231.1 1501 230.2C1501.9 229.6 1502.5 229 1503.6 228.6C1504.7 228.2 1505.8 228.4 1506.8 228.1C1508.5 227.6 1511.9 223.6 1514.8 222.4C1516.3 252.5 1505.4 281.8 1485.1 303.6C1483.5 302 1481.2 300.9 1479.1 301.5C1477.2 302 1475.4 303.7 1473.4 303.3C1471.5 302.8 1470 301.6 1467.9 302.1C1464.7 302.8 1460.9 304.6 1458.2 306.3C1457.1 307.1 1455.9 307.5 1454.7 308.1C1452.8 309.2 1451.4 311 1449.6 312.2C1445.5 314.8 1441.3 318 1436.5 318.7C1433.1 319.2 1429.8 319.4 1426.6 320.7C1423.2 321.9 1420.2 324 1416.9 325.3C1414.1 326.3 1411.6 327.3 1409.2 328.8C1406.4 330.6 1403.6 332 1400.6 333.2C1398.3 334.1 1396.3 334.8 1394.6 336.6C1394.07 337.2 1393.5 337.8 1392.9 338.4C1366.7 335.8 1342 324 1323.7 304.9C1323.7 304.833 1323.7 304.733 1323.7 304.6C1325.6 306.9 1326.8 307.6 1329.4 308.5C1330.8 309.1 1331.7 308.9 1333.1 309.1C1335.8 309.5 1338.1 311.7 1339.5 313.7C1340 314.5 1340.6 315 1341.1 315.8C1341.5 316.5 1341.3 316.9 1342.1 317.3C1342.6 317.6 1343.8 317.4 1344.5 317.5C1345.8 317.7 1347.1 318 1348.3 318.6C1349.7 319.3 1350.7 319.9 1352.3 320.2C1353.2 320.3 1354 320.6 1355 321C1356.1 321.3 1357.3 321.4 1358.4 322C1359.7 322.7 1360.8 323.7 1362 324.5C1366.3 327.2 1372.5 325.6 1377.2 325.6C1379 325.5 1380.9 325.7 1382.7 325.6C1384.5 325.6 1386.2 325.8 1387.9 325.2C1391 324 1394.1 322.8 1397.2 321.6C1398.9 320.8 1400.3 320.9 1402.1 320.4C1404.7 319.7 1407.1 318.4 1409.3 316.8C1412.1 314.8 1415.1 313.1 1417.6 310.7C1419.6 308.9 1420.7 306.7 1422.5 304.7C1425.4 301.5 1428.7 298.9 1432 296C1436 292.4 1440.2 290 1442.6 285C1444.2 281.5 1442.6 277.4 1444.9 274.3C1446.3 272.3 1447.7 270.5 1449.1 268.5C1450 267.1 1451.2 266 1451.9 264.4C1452.6 262.8 1454.1 261 1454.5 259.4C1454.7 258.7 1454.9 256.7 1454.8 256.1C1454.6 255.1 1454.4 255.5 1453.9 254.9C1452.1 253 1450.5 251.2 1449.1 249.1C1446.1 244.6 1444.5 239.3 1442.5 234.3C1440.3 228.6 1436.9 223.1 1433.3 218.1C1431.5 215.6 1430.4 213.9 1427.7 212.5C1424.9 211.2 1422.7 209.5 1419.4 210C1417.7 210.2 1416.2 211.6 1414.4 211.3C1412.5 211 1411.2 210.6 1409.2 211C1406.4 211.5 1403.3 212.3 1400.7 213.4C1398.5 214.3 1395.3 214.8 1393.8 216.8C1392.7 218.3 1392.9 220.4 1391.9 221.8C1390.9 223.2 1389.9 223.5 1389.5 225.4C1388 231.3 1392.4 233.8 1396.8 236.3C1397.8 236.8 1399.6 238.9 1400.8 238.9C1402.6 239 1402.9 236.7 1403.1 235.3C1403.3 232.9 1403 232.5 1400.9 231.3C1399.7 230.6 1397 229.7 1397.7 227.9C1398.1 227.1 1398.8 227.2 1399.5 226.8C1400.2 226.4 1400.6 225.9 1401.3 225.4C1402.8 224.4 1404.4 224.4 1405.9 225.4C1407.2 226.4 1407.6 227.9 1408.7 228.9C1410 230 1411.9 229.5 1413.4 229C1415.9 228.1 1419.4 226.3 1421.4 229.3C1423.3 231.9 1424.2 236.1 1425.4 239.1C1425.9 240.6 1426.1 242.1 1425.6 243.4C1425.2 244.3 1424.5 244.9 1424 245.5C1422.5 247.2 1421.3 249.2 1420.2 251.1C1419 253 1418.2 255.2 1417.5 257.3C1416.5 260 1414.9 262.1 1413.3 264.5C1410.9 267.9 1407.5 272.7 1403.1 269.2C1401.6 267.9 1400.2 266.4 1398.8 265.1C1396.8 263.3 1394.2 262.7 1391.8 261.5C1389.7 260.5 1387.7 260.2 1385.7 258.9C1383.4 257.5 1380.9 256.5 1378.9 254.5C1377.3 252.9 1375.9 250.8 1374.5 248.9C1373.4 247.6 1372.6 246.2 1371.9 244.7C1371 243.1 1369.8 242 1368.9 240.5C1367.9 239.1 1367.5 237.5 1366.1 236.3C1363.8 234.3 1361 235.4 1358.4 235.2C1354.1 234.8 1351.3 231.9 1348.4 229.2C1345.9 226.9 1343.7 221.8 1345 218.5C1345.7 216.7 1347.4 214.9 1348.6 213.4C1349.3 212.4 1350.2 211.5 1351.5 211.4C1352.7 211.3 1354.1 212.4 1355.2 212.2C1357 212 1357.1 210 1357.4 208.6C1357.8 206.6 1358.1 204.7 1359.3 203C1361.6 199.4 1358.7 194.7 1355.7 192.3C1353.1 190.3 1349.6 189.1 1347.2 186.7C1345.8 185.3 1345.8 183.5 1345.7 181.6C1345.7 179.7 1346.5 177.6 1346.2 175.7C1345.9 173.4 1343.1 171.5 1341.7 169.8C1340 167.8 1339.4 166.4 1341.4 164.2C1344.4 160.8 1349.4 157.3 1353.6 155.6C1355.6 154.7 1357 154.7 1359.2 155.2C1359.9 155.4 1360.7 155.8 1361.4 155.9C1362.6 156.1 1364 155.6 1365.4 155.6C1367.3 155.5 1369.5 155.7 1371.4 155.4C1374.4 155 1377.2 153.6 1380.2 153.1C1381.1 153 1382.6 152.7 1383.6 153C1384.6 153.2 1384.5 153.6 1385.2 154.2C1387.1 156 1389.8 155.4 1392 154.2C1393.4 153.4 1394.4 152.4 1396 151.9C1398 151.3 1400.2 151.6 1402.3 151.6C1404.6 151.5 1407.4 152.3 1409.4 150.9C1412.1 149.1 1412.8 145.4 1414.2 142.7C1415.4 140.2 1416 137.6 1416.9 134.9C1418.2 130.8 1414.5 129 1411.8 127C1410.2 125.9 1410.7 125.4 1412.2 124C1413.2 123 1414 121.8 1415.4 121.5C1417.7 120.9 1420.1 121.7 1422.3 122.5C1423.2 122.9 1424.1 123.3 1424.9 123.9C1426.1 125 1427 125.5 1428.3 126.4C1433.9 130 1439.4 134.9 1446 136.1C1448.6 136.5 1451.1 136.4 1453.6 136.9C1455.7 137.3 1457.9 137.7 1460 137.6C1461.3 137.6 1462.5 137.2 1463.9 137.2C1465.4 137.3 1467.1 137.6 1468.6 138C1468.87 138.133 1469.13 138.233 1469.4 138.3C1485.9 150.3 1499.2 167 1507.2 187.3ZM1433.7 204.2C1433.3 203 1432.9 201.8 1431.7 201.1C1430 200.1 1427.9 200.1 1426 200C1424.8 199.9 1423.8 200.3 1423.5 201.6C1423.1 203.8 1425.1 204.5 1426.6 205.5L1425.4 205.2C1426.1 206.5 1427.3 207.4 1428.7 207.8C1430 208.3 1431.6 209.4 1433 209.1C1433.7 208.9 1435 208 1434.9 207.2C1434.9 206.3 1434.1 205 1433.7 204.2ZM1432.4 136.8C1431.5 135.7 1430.6 135.2 1429.5 134.5C1427.5 133.2 1425.9 131.2 1423.8 130C1423.13 129.6 1422.43 129.233 1421.7 128.9C1421 128.5 1420.2 127.8 1419.5 127.7C1418.9 127.6 1418.4 127.7 1418 128.3C1417.4 129.3 1418 130 1418.3 131C1418.7 132.1 1418.8 133.4 1418.9 134.5C1419 136 1418.6 137.4 1418.8 138.9C1418.9 139.5 1419 140.3 1419.1 140.8C1419.4 141.7 1420.1 142.2 1420.7 143C1417.4 143.2 1420.3 144.5 1421.6 144.9C1423.7 145.5 1426.4 146.5 1428.6 145.6C1429.6 145.2 1431 144.3 1431.8 143.6C1432.7 142.7 1433.6 141.4 1433.8 140.1C1433.9 138.8 1433.2 137.6 1432.4 136.8ZM1492.4 172C1491.9 170.7 1491.4 169.4 1490.9 168.1C1490.3 166.7 1489.2 166.2 1488 165.3C1487.2 164.8 1486.3 164.4 1485.7 163.6C1485.2 162.9 1484.7 162.4 1484.2 161.8C1483.1 160.6 1482.4 159.2 1481.5 158C1480.1 156.3 1478.1 155.1 1476.1 154.4C1474 153.7 1471.8 153 1469.5 153.1C1467.8 153.2 1465.7 154.1 1464.3 155.2C1462.3 156.7 1461.5 159.8 1461.8 162.3C1462.3 166.1 1465.1 169.6 1467.3 172.5C1468.7 174.3 1470.3 175.9 1471.5 177.7C1472.5 179.3 1473.4 180.6 1474.6 182.1C1472.8 182.5 1474.3 182.4 1475.6 182.8C1476.8 183.2 1477.8 183.2 1479.1 183C1482.2 182.7 1485.9 182.2 1488.6 180.7C1490.5 179.6 1493 178 1493.4 175.8C1493.6 174.4 1492.9 173.3 1492.4 172Z" fill="url(#paint1_linear_528_305870)"/>
<path style="mix-blend-mode:multiply" opacity="0.3" d="M1341.5 217.9C1341.5 219 1341.5 221.5 1340.6 222.4C1339.6 223.5 1337.7 222.7 1336.5 222.6C1335.6 222.5 1334.6 222.2 1333.6 222.2C1332.8 222.3 1332.1 222.6 1331.3 222.5C1330.7 222.5 1329.6 222.4 1329.1 222.1C1328.5 221.8 1328.2 221.2 1327.7 220.7C1326.6 219.5 1325.9 217.8 1325 216.4C1324.4 215.5 1324.3 214.7 1324.2 213.6C1324 212.3 1323.8 210.9 1323.7 209.5C1323.6 207.5 1323.4 205.4 1323.7 203.5C1324 201.6 1324.8 200.5 1326.1 199.2C1326.7 198.6 1327.3 198.3 1327.9 197.8C1328.5 197.1 1329.1 196.4 1329.9 195.9C1330.3 195.6 1330.9 195.3 1331.3 195.2C1332 195.1 1332.4 195.3 1333 195.4C1333.9 195.5 1334.3 195.4 1335.2 195.9C1335.8 196.3 1336.3 196.7 1336.8 197.3C1337.7 198.5 1338.8 199.5 1339.6 200.7C1340.7 202.3 1341.3 203.7 1341.3 205.7C1341.3 207.4 1341.6 209.1 1341.9 210.8C1342.1 212.2 1342.5 214.2 1342.2 215.7C1341.9 216.8 1341.4 217.6 1341.5 217.9Z" fill="url(#paint2_linear_528_305870)"/>
<path style="mix-blend-mode:multiply" opacity="0.3" d="M1335.6 229C1335.27 229.667 1335.13 230.367 1335.2 231.1C1336.2 231.2 1336.8 232.8 1338 232.6C1338.3 231.7 1339.5 230.4 1338.4 229.6C1338.2 229.4 1337.8 229.5 1337.6 229.4C1337.3 229.3 1337.1 229 1336.9 228.9C1336.2 228.9 1335 229.7 1334.4 229.9L1335.6 229Z" fill="url(#paint3_linear_528_305870)"/>
<path style="mix-blend-mode:multiply" opacity="0.3" d="M1360.3 228.9C1361.1 229.6 1361.5 230 1362.5 230.3C1363.2 230.6 1364.1 230.8 1364.9 231.1C1366.2 231.5 1368.1 231.8 1369.3 232.5C1370.6 233.3 1370.6 234.3 1371.2 235.4C1371.6 236.1 1372.1 236.7 1372.5 237.4C1372.7 237.8 1373 238 1373.2 238.5C1373.4 238.9 1373.5 239.4 1373.9 239.9C1374.5 240.7 1375.5 241.2 1376.1 242.1C1376.6 242.8 1376.9 243.6 1377.7 244.1C1378.3 244.4 1378.9 244.4 1379.5 244.5C1380.3 244.8 1381 245.2 1381.7 245.6C1384 247.1 1385.2 249.7 1387.4 251.3C1389.4 252.8 1392.4 251 1394.5 250.6C1394.8 250.5 1395.2 250.7 1395.5 250.5C1395.9 250.4 1396.1 249.9 1396.4 249.7C1396.9 249.2 1397.5 248.9 1398.2 248.8C1398.6 248.7 1398.5 249.1 1399 248.7C1399.3 248.5 1399.5 247.7 1399.5 247.4C1399.7 246.3 1399.3 245.5 1398.7 244.7C1398 243.8 1397.4 242.9 1396.7 242.1C1396.1 241.3 1395.3 240.6 1394.8 239.7C1394.2 238.9 1394.1 237.9 1393.5 237C1392.3 234.9 1390.6 234.4 1388.4 233.4C1386.4 232.6 1383.6 232.3 1382.8 229.9C1382.5 229 1382.9 228.8 1383.1 228C1383.3 227.1 1383.2 225.9 1383.7 225.1C1383.9 224.8 1384.7 224.1 1385 223.8C1385.6 223.3 1386.4 222.8 1386.9 222.1C1387.6 221.4 1387.3 220.8 1387.6 220C1387.8 219.5 1387.9 219.7 1388.2 219.3C1388.6 218.9 1388.7 218.7 1388.9 218.1C1389.3 217.1 1389.6 216.2 1389.6 215.1C1389.7 214.2 1389.7 213.5 1390.1 212.7C1390.5 211.7 1391 210.6 1391.6 209.7C1392.1 208.8 1393 207.8 1393.9 207.3C1394.4 207 1395 206.9 1395.5 206.7C1397 206.1 1398.1 204.7 1399.2 203.6C1400.8 201.9 1402.9 198.4 1405.7 199.8C1406.5 200.2 1406.9 201.1 1407.8 201.4C1409.8 202 1411.4 200.3 1412.6 199.1C1414.8 197 1416.2 194.3 1417.6 191.7C1418.4 190 1419.1 188.5 1418.5 186.6C1417.2 182.9 1413.3 181.6 1411.4 178.3C1409.6 175.1 1409.7 171 1408.9 167.5C1408.5 165.7 1407.5 163.6 1406 162.5C1405.5 162.2 1404.6 161.8 1404 161.7C1402.5 161.3 1401.9 162 1400.6 162.3C1399.7 162.5 1399.2 162.3 1398.4 162C1396.4 161.3 1393.7 163.2 1391.8 163.9C1389.1 164.9 1385.9 165.8 1383 165.4C1379.6 164.9 1376.2 164.3 1372.8 163.4C1370.3 162.8 1367.7 162 1365.2 161.8C1363.4 161.6 1361.5 162.1 1359.8 162.7C1357.5 163.5 1355.6 164.9 1354.8 167.3C1354 169.7 1355.2 170.3 1356.6 172C1357 172.6 1358.1 173.6 1357.9 174.4C1357.7 175.7 1355.8 176.1 1354.8 176.5C1353.9 176.8 1352 177.2 1351.9 178.4C1351.9 179.2 1352.9 180.8 1353.2 181.6C1353.5 182.4 1353.6 183.4 1354.4 183.8C1355 184.1 1355.7 183.9 1356.3 184C1357.4 184.1 1358 184.9 1358.9 185.5C1359.5 185.9 1360.3 186.1 1361 186.3C1361.9 186.7 1362.9 187.4 1363.8 187.5C1365.5 187.7 1366.7 186.7 1368.4 187.5C1368.9 187.7 1369.5 188.1 1370.1 188.2C1370.6 188.3 1371.2 188.2 1371.7 188.2C1372.9 188.1 1374.7 188.2 1375.4 189.5C1376 190.8 1374.6 192.3 1373.7 193C1372.8 193.6 1371.4 194.3 1371.5 195.5C1371.7 196.5 1372.6 197.1 1372.3 198.2C1371.5 201.7 1366.9 201 1364.3 202.1C1360.5 203.7 1359.7 207.8 1358.8 211.5C1358.7 211.8 1358.5 212.1 1358.4 212.5C1358.3 213.1 1358.5 213.3 1358.5 213.8C1358.5 214.6 1357.9 215.3 1357.4 215.8C1356.8 216.5 1356.4 217 1355.4 217.4C1354.4 217.9 1353.3 218.1 1352.3 218.6C1350.5 219.7 1350.6 222.2 1351.9 223.8C1352.7 224.8 1354.4 225.1 1355.4 226C1356.1 226.6 1356.8 227.4 1357.7 227.9C1358.2 228.2 1358.9 228.3 1359.4 228.5C1360.2 228.9 1360.7 229.6 1360.3 228.9Z" fill="url(#paint4_linear_528_305870)"/>
<path style="mix-blend-mode:multiply" opacity="0.3" d="M1438.2 211.6C1438.4 212.8 1438.5 213.6 1439 214.5C1439.5 215.3 1439.9 216.1 1440.3 216.9C1441.3 219.2 1441.7 221.6 1442.6 223.9C1443.2 225.3 1444 226.2 1444.7 227.4C1445.7 229 1445.7 230.8 1446.4 232.5C1447.3 234.8 1448.3 237.2 1450.6 238.5C1451.4 239 1452.2 239.2 1453.2 238.9C1454.1 238.6 1454.7 237.8 1455.6 237.5C1456.4 237.3 1457.1 237.6 1457.9 237.7C1459 237.7 1460 237.7 1461.1 237.7C1462.1 237.7 1462.6 237.9 1463.5 238.3C1464.3 238.6 1465.2 238.5 1465.8 239.3C1466.3 240.1 1465.6 241 1465.3 241.8C1464.8 243.5 1464.3 245 1463 246.3C1462.3 247.2 1461.8 247.3 1460.7 247.4C1459.7 247.4 1458.7 247.5 1458.1 248.4C1457.2 249.6 1456.5 251.2 1456.3 252.6C1456.3 252.8 1456.3 253.6 1456.3 253.7C1456.5 254.4 1456.4 253.9 1456.9 254.3C1457.4 254.7 1457.9 254.9 1458.2 255.6C1458.6 256.6 1458.6 258.3 1458.5 259.3C1458.4 260.1 1458.2 260.9 1457.8 261.5C1457.3 262.3 1457.2 263.1 1456.6 263.8C1455.6 265.3 1455.2 266.9 1454 268.2C1452.5 269.8 1451.4 271.7 1450.3 273.5C1448 277.3 1445.1 280.5 1444.5 285.2C1444.3 286.3 1444.6 288.4 1445.6 289.2C1446 289.5 1446.7 289.6 1447.2 289.8C1448.1 290.3 1448.5 291 1449.1 291.7C1449.8 292.4 1450.9 293.7 1451.9 294C1452.9 294.3 1454.5 294 1455.6 293.7C1456.2 293.5 1456.7 293.2 1457.3 293C1457.8 292.9 1458.1 293 1458.6 292.8C1460.4 292.2 1461.8 291.6 1463.8 292C1464.5 292.1 1465 292.4 1465.6 292.7C1466.3 293.1 1466.9 293.9 1467.7 294.2C1469.1 294.8 1471 292.9 1471.9 292.1C1473.2 290.9 1474.6 289.2 1476.5 288.8C1477.6 288.6 1478.7 289.1 1479.9 289.1C1481.5 289 1482.7 289 1484.3 289.3C1484.9 289.4 1485.3 289.6 1485.9 289.3C1488 288.7 1489.5 286.7 1490.8 285.1C1492.4 283.2 1493.7 281.1 1495.2 279.2C1497 277.1 1498 275.3 1499.1 272.8C1500.1 270.6 1501.6 268.7 1502.8 266.7C1503.8 265.1 1504.7 263.5 1505.6 261.9C1506.5 260.3 1507.1 258.4 1507.8 256.7C1508.3 255.3 1509 254.1 1509.3 252.6C1509.6 251 1509.8 249.3 1510.3 247.7C1510.9 246 1511.2 244.5 1511.5 242.8C1511.7 241.2 1511.8 238.1 1509.5 237.8C1507.8 237.6 1505.9 238.8 1504.4 239.4C1502 240.3 1499.6 239.5 1497.4 238.3C1495.6 237.4 1494.1 236.2 1492.2 235.4C1491.3 235.1 1490.2 234.3 1489.2 234.4C1488.4 234.4 1487.4 234.9 1486.8 235.3C1485.3 236.3 1483.7 237 1481.9 237.3C1480.3 237.6 1478 238 1476.5 237.3C1475.5 236.9 1474.6 236.2 1473.7 235.6C1472.4 234.8 1471.9 232.6 1471.9 231.1C1471.8 227.9 1470.9 224.8 1471 221.7C1471.1 219.7 1473.6 219.3 1474.7 217.9C1475.6 216.8 1475.7 215.5 1476.2 214.3C1476.7 213.2 1477.5 212.2 1478.1 211.2C1480.2 207.8 1479.4 204.2 1475.7 202.2C1473.6 201.1 1471.2 201.3 1469.4 202.7C1468.6 203.4 1467.7 204 1467 204.7C1466 205.7 1465.3 206.8 1464.1 207.5C1459.5 210.2 1454.3 209.1 1449.3 208.4C1447 208 1444.5 208 1442.2 208.5C1441 208.8 1440.6 208.8 1439.8 209.8C1439.2 210.6 1438.6 210.9 1437.9 211.6C1437.2 212.3 1436.9 213.3 1438.2 211.6Z" fill="url(#paint5_linear_528_305870)"/>
<path d="M1386.7 118.2C1386.57 118.267 1386.43 118.333 1386.3 118.4C1384.4 119.8 1382.2 120.7 1379.9 121.6C1379.4 121.8 1378.8 122.2 1378.3 122.3C1377.8 122.4 1377.6 122.2 1377.2 122.3C1376.2 122.5 1375.2 122.8 1374.3 122.9C1372.7 123.1 1370.9 124 1369.3 124.7C1367.4 125.4 1365 125.3 1363.2 126.3C1361.2 127.3 1359.5 128.9 1357.4 129.7L1355.9 130.3C1354.6 130.8 1354.3 131.8 1353.2 132.9C1353.2 133.9 1353.6 135.6 1353.1 136.5C1352.9 136.8 1352.6 137.1 1352.3 137.4C1351.6 138.1 1351 138.8 1350.1 139.4C1348.6 140.6 1347 141.7 1345.2 142.5C1343.8 143.2 1342.3 143.4 1340.7 143.9C1337.7 144.7 1334.8 145.4 1332.5 147.8C1331.3 149.1 1330 150.4 1328.8 151.7C1328 152.5 1327.1 153.2 1326.6 154.1C1326.1 154.7 1325.8 155.5 1325.4 156.2C1324.9 157 1324 157.4 1323.3 158.1C1322.5 158.8 1322.1 159.7 1321.8 160.8C1321.4 162.3 1322.1 163.6 1321.9 165C1321.7 165.8 1321.2 166.4 1320.7 167C1318.4 169.9 1318.6 173.4 1317.3 176.8C1316.4 179.2 1314.1 180.8 1313 183.2C1311.9 185.6 1311.1 188.1 1310.2 190.6C1309.7 192.3 1309 193 1307.8 194.2C1306.6 195.3 1305.4 196.9 1304.9 198.5C1304.3 200.1 1303.7 201.8 1303 203.4C1302.4 204.6 1301.4 205.6 1300.8 206.9C1300.4 208.1 1300.4 209.4 1300.1 210.6C1299.6 213.4 1299.8 216.1 1299.4 218.8C1299 221.1 1297.7 223.5 1298.5 225.8C1298.7 226.6 1299 227 1299.5 227.7C1300.2 228.6 1300.3 229.8 1300.8 230.9C1301.1 231.5 1301.5 231.9 1301.9 232.4C1302.4 233.1 1302.7 233.9 1303.4 234.5C1304.4 235.4 1305.8 235.8 1306.9 236.6C1308.2 237.5 1308.7 238.8 1308.8 240.3C1308.9 241.9 1308.9 243.5 1308.9 245.1C1308.9 247.5 1307.7 250 1308.1 252.4C1308.3 253.3 1308.9 254 1309.3 254.7C1309.9 255.6 1310.5 256.6 1310.9 257.5C1311.4 258.5 1311.7 259.5 1311.8 260.6C1311.8 261.4 1311.7 262 1311.5 262.8C1311.4 263.2 1311.2 263.5 1311.1 263.8C1310.9 264.4 1311.1 265 1311.1 265.7C1311.1 266.3 1311 267.8 1310.6 268.3C1309.6 269.4 1308.2 267.1 1307.7 268.2C1307.4 268.9 1308.3 270 1308.5 270.7C1308.7 271.6 1308.8 272.8 1308.7 273.7C1308.6 275.6 1308.1 276.3 1309.3 277.9C1310.2 279.2 1311.2 280.2 1312.5 281.1C1314 282.3 1314.3 284 1315.3 285.4C1315.9 286.2 1316.1 287.2 1316.4 288.1C1316.8 288.9 1317.5 289.5 1318 290.2C1318.3 290.8 1318.8 291.7 1318.8 292.4C1318.8 292.9 1318.4 293.3 1318.2 293.7C1317.9 294.6 1318.1 295.3 1318.2 296.2C1318.4 297.5 1318.7 298.6 1319.2 299.8C1311.4 290.8 1305.1 280.3 1300.5 268.5C1279.4 214.8 1302.9 154.6 1353.4 129C1355.87 127.733 1358.4 126.533 1361 125.4C1361 125.4 1361.03 125.4 1361.1 125.4C1361.77 125.133 1362.47 124.833 1363.2 124.5C1371 121.5 1378.8 119.4 1386.7 118.2Z" fill="url(#paint6_radial_528_305870)"/>
</g>
</g>
<defs>
<radialGradient id="paint0_radial_528_305870" cx="0" cy="0" r="1" gradientUnits="userSpaceOnUse" gradientTransform="translate(1320.8 204.729) rotate(-21.4515) scale(178.405 178.405)">
<stop offset="0.006" stop-color="#C2B1FF"/>
<stop offset="1" stop-color="#5B3DC3"/>
</radialGradient>
<linearGradient id="paint1_linear_528_305870" x1="1361.53" y1="352.163" x2="1290.2" y2="170.632" gradientUnits="userSpaceOnUse">
<stop stop-color="#E8DDFF"/>
<stop offset="1" stop-color="#AA8AD8"/>
</linearGradient>
<linearGradient id="paint2_linear_528_305870" x1="1318.58" y1="231.262" x2="1308.01" y2="204.355" gradientUnits="userSpaceOnUse">
<stop stop-color="#E8DDFF"/>
<stop offset="1" stop-color="#AA8AD8"/>
</linearGradient>
<linearGradient id="paint3_linear_528_305870" x1="1335.65" y1="233.542" x2="1334.11" y2="229.627" gradientUnits="userSpaceOnUse">
<stop stop-color="#E8DDFF"/>
<stop offset="1" stop-color="#AA8AD8"/>
</linearGradient>
<linearGradient id="paint4_linear_528_305870" x1="1346.65" y1="269.736" x2="1311.96" y2="181.454" gradientUnits="userSpaceOnUse">
<stop stop-color="#E8DDFF"/>
<stop offset="1" stop-color="#AA8AD8"/>
</linearGradient>
<linearGradient id="paint5_linear_528_305870" x1="1439.03" y1="307.786" x2="1405.6" y2="222.711" gradientUnits="userSpaceOnUse">
<stop stop-color="#E8DDFF"/>
<stop offset="1" stop-color="#AA8AD8"/>
</linearGradient>
<radialGradient id="paint6_radial_528_305870" cx="0" cy="0" r="1" gradientUnits="userSpaceOnUse" gradientTransform="translate(1310.42 194.042) rotate(-21.4511) scale(71.1936 71.1936)">
<stop stop-color="#FFFAFF"/>
<stop offset="1" stop-color="#E0C8F8"/>
</radialGradient>
<clipPath id="clip0_528_305870">
<rect width="1592" height="708" fill="white"/>
</clipPath>
</defs>
</svg>
